<svg width="177" height="346" viewBox="0 0 177 346" fill="none" xmlns="http://www.w3.org/2000/svg">
<g clip-path="url(#clip0_0_2845)">
<g style="mix-blend-mode:multiply" opacity="0.6">
<g style="mix-blend-mode:multiply" opacity="0.04">
<path d="M174.401 323.488C174.401 329.152 195.335 346.502 88.0669 344.638C-5.63051 343.06 0.866222 320.405 5.91924 317.896C37.8976 302.051 81.6423 296.889 121.85 296.889C162.057 296.889 174.401 317.824 174.401 323.488Z" fill="#E0E0E0"/>
</g>
<g style="mix-blend-mode:multiply" opacity="0.08">
<path d="M173.679 322.914C173.679 328.435 193.097 345.211 89.3662 343.419C-1.37153 341.842 4.25897 320.046 9.09543 317.537C39.7023 301.979 82.4364 297.176 121.778 297.176C161.119 297.176 173.607 317.322 173.607 322.914H173.679Z" fill="#E0E0E0"/>
</g>
<g style="mix-blend-mode:multiply" opacity="0.12">
<path d="M172.885 322.341C172.885 327.789 190.86 343.921 90.6656 342.2C2.95962 340.695 7.57951 319.616 12.2716 317.179C41.4347 301.979 83.2304 297.463 121.706 297.463C160.181 297.463 172.813 316.892 172.813 322.341H172.885Z" fill="#E0E0E0"/>
</g>
<g style="mix-blend-mode:multiply" opacity="0.15">
<path d="M172.164 321.767C172.164 327.073 188.694 342.63 92.0371 340.981C7.29077 339.547 11.0444 319.258 15.52 316.82C43.3116 301.908 84.0245 297.749 121.706 297.749C159.387 297.749 172.164 316.39 172.164 321.767Z" fill="#E0E0E0"/>
</g>
<g style="mix-blend-mode:multiply" opacity="0.19">
<path d="M171.442 321.265C171.442 326.427 186.529 341.34 93.3365 339.834C11.5498 338.472 14.4372 318.971 18.7683 316.605C45.1884 301.979 84.8907 298.179 121.706 298.179C158.52 298.179 171.442 316.103 171.442 321.337V321.265Z" fill="#C7C7C7"/>
</g>
<g style="mix-blend-mode:multiply" opacity="0.23">
<path d="M170.72 320.692C170.72 325.782 184.291 340.049 94.708 338.615C15.8809 337.325 17.9021 318.612 22.0167 316.247C46.9931 301.979 85.7569 298.466 121.706 298.466C157.654 298.466 170.72 315.673 170.72 320.763V320.692Z" fill="#E0E0E0"/>
</g>
<g style="mix-blend-mode:multiply" opacity="0.27">
<path d="M169.926 320.118C169.926 325.065 182.053 338.759 95.9351 337.397C20.1399 336.178 21.1505 318.254 25.1207 315.888C48.7255 301.979 86.4066 298.753 121.633 298.753C156.86 298.753 169.926 315.171 169.926 320.118Z" fill="#C7C7C7"/>
</g>
<g style="mix-blend-mode:multiply" opacity="0.31">
<path d="M169.204 319.545C169.204 324.42 179.887 337.468 97.3067 336.178C24.471 335.031 24.6154 317.896 28.3691 315.53C50.5302 301.979 87.2728 299.04 121.633 299.04C155.994 299.04 169.204 314.741 169.204 319.545Z" fill="#AEAEAE"/>
</g>
<g style="mix-blend-mode:multiply" opacity="0.35">
<path d="M168.482 318.971C168.482 323.703 177.722 336.178 98.606 334.959C28.73 333.884 27.936 317.537 31.6174 315.171C52.407 301.979 88.1391 299.327 121.633 299.327C155.128 299.327 168.482 314.239 168.482 318.971Z" fill="#AEAEAE"/>
</g>
<g style="mix-blend-mode:multiply" opacity="0.38">
<path d="M167.76 318.469C167.76 323.058 175.556 334.959 99.9776 333.812C33.0612 332.808 31.4009 317.179 34.8658 314.956C54.2838 302.123 88.9331 299.757 121.633 299.757C154.334 299.757 167.832 313.952 167.832 318.541L167.76 318.469Z" fill="#464646"/>
</g>
<g style="mix-blend-mode:multiply" opacity="0.42">
<path d="M167.038 317.896C167.038 322.412 173.318 333.668 101.277 332.593C37.3923 331.661 34.7936 316.82 38.042 314.598C56.0885 302.123 89.7271 300.043 121.561 300.043C153.395 300.043 167.038 313.45 167.038 317.967V317.896Z" fill="#AEAEAE"/>
</g>
<g style="mix-blend-mode:multiply" opacity="0.46">
<path d="M166.244 317.322C166.244 321.695 171.081 332.378 102.576 331.303C41.6513 330.371 38.1142 316.39 41.2182 314.167C57.821 302.123 90.5212 300.259 121.489 300.259C152.457 300.259 166.244 312.949 166.244 317.322Z" fill="#121212"/>
</g>
<g style="mix-blend-mode:multiply" opacity="0.5">
<path d="M165.522 316.748C165.522 320.978 168.915 331.087 103.948 330.084C45.9825 329.223 41.5791 316.032 44.5387 313.809C59.77 302.194 91.3874 300.545 121.561 300.545C151.735 300.545 165.595 312.447 165.595 316.748H165.522Z" fill="#323232"/>
</g>
<g style="mix-blend-mode:multiply" opacity="0.54">
<path d="M164.801 316.175C164.801 320.333 166.75 329.797 105.247 328.865C50.2414 328.076 44.8997 315.673 47.7149 313.45C61.5746 302.338 92.1815 300.832 121.489 300.832C150.796 300.832 164.801 312.017 164.801 316.175Z" fill="#464646"/>
</g>
<g style="mix-blend-mode:multiply" opacity="0.58">
<path d="M164.079 315.601C164.079 319.616 164.512 328.506 106.619 327.646C54.6448 326.929 48.3646 315.386 50.9633 313.164C63.4515 302.553 93.0477 301.191 121.489 301.191C149.93 301.191 164.079 311.658 164.079 315.673V315.601Z" fill="#464646"/>
</g>
<g style="mix-blend-mode:multiply" opacity="0.62">
<path d="M163.285 315.099C163.285 318.971 162.274 327.216 107.846 326.499C58.8316 325.854 52.0461 315.53 54.0673 312.877C66.9164 304.99 93.6974 301.549 121.345 301.549C148.992 301.549 163.285 311.228 163.285 315.171V315.099Z" fill="#464646"/>
</g>
<g style="mix-blend-mode:multiply" opacity="0.65">
<path d="M162.563 314.526C162.563 318.326 160.108 325.925 109.217 325.28C63.1627 324.707 55.511 315.171 57.3878 312.519C68.9376 305.134 94.6358 301.836 121.417 301.836C148.198 301.836 162.635 310.798 162.635 314.526H162.563Z" fill="#323232"/>
</g>
<g style="mix-blend-mode:multiply" opacity="0.69">
<path d="M161.841 313.952C161.841 317.609 157.943 324.635 110.517 324.061C67.4939 323.559 58.9037 314.813 60.564 312.16C70.8144 305.349 95.4298 302.123 121.345 302.123C147.259 302.123 161.841 310.296 161.841 313.952Z" fill="#323232"/>
</g>
<g style="mix-blend-mode:multiply" opacity="0.73">
<path d="M161.119 313.379C161.119 316.892 155.777 323.344 111.888 322.842C71.825 322.412 62.3687 314.454 63.8124 311.801C72.7634 305.492 96.2239 302.409 121.345 302.409C146.465 302.409 161.119 309.866 161.119 313.379Z" fill="#323232"/>
</g>
<g style="mix-blend-mode:multiply" opacity="0.77">
<path d="M160.397 312.805C160.397 316.247 153.54 322.054 113.188 321.624C76.084 321.265 65.8336 314.167 66.9886 311.443C74.7125 305.636 97.0179 302.696 121.272 302.696C145.527 302.696 160.325 309.364 160.325 312.805H160.397Z" fill="#323232"/>
</g>
<g style="mix-blend-mode:multiply" opacity="0.81">
<path d="M159.603 312.303C159.603 315.601 151.302 320.835 114.487 320.477C80.343 320.19 69.2263 313.881 70.1648 311.228C76.5893 305.922 97.812 303.126 121.2 303.126C144.588 303.126 159.531 309.077 159.531 312.375L159.603 312.303Z" fill="#323232"/>
</g>
<g style="mix-blend-mode:multiply" opacity="0.85">
<path d="M158.881 311.73C158.881 314.884 149.136 319.545 115.786 319.258C84.6741 318.971 72.6191 313.522 73.4131 310.87C78.5383 306.066 98.606 303.342 121.2 303.342C143.794 303.342 158.881 308.504 158.881 311.73Z" fill="#323232"/>
</g>
<g style="mix-blend-mode:multiply" opacity="0.88">
<path d="M158.159 311.156C158.159 314.239 146.971 318.254 117.158 318.039C89.0053 317.824 76.084 313.164 76.6615 310.511C80.4873 306.281 99.4723 303.628 121.2 303.628C142.928 303.628 158.159 308.073 158.159 311.156Z" fill="#323232"/>
</g>
<g style="mix-blend-mode:multiply" opacity="0.92">
<path d="M157.438 310.583C157.438 313.522 144.733 316.964 118.529 316.82C93.3365 316.677 79.5489 312.877 79.9099 310.152C82.5086 306.424 100.339 303.915 121.2 303.915C142.062 303.915 157.438 307.643 157.438 310.583Z" fill="#323232"/>
</g>
<g style="mix-blend-mode:multiply" opacity="0.96">
<path d="M156.644 310.009C156.644 312.805 142.495 315.673 119.757 315.601C97.5232 315.601 82.4364 312.447 83.0139 309.794C83.8079 306.424 100.988 304.202 121.056 304.202C141.124 304.202 156.571 307.141 156.571 310.009H156.644Z" fill="#323232"/>
</g>
<g style="mix-blend-mode:multiply">
<path d="M155.922 309.507C155.922 312.232 140.33 314.383 121.128 314.383C101.927 314.383 86.3344 312.16 86.3344 309.507C86.3344 306.855 101.927 304.56 121.128 304.56C140.33 304.56 155.922 306.783 155.922 309.507Z" fill="#323232"/>
</g>
</g>
<path d="M144.589 294.81C147.332 297.247 148.053 301.692 151.879 302.409C155.705 303.126 160.542 302.051 161.913 303.413C163.285 304.775 163.285 308.934 160.903 309.292C158.448 309.651 150.219 312.375 146.032 310.654C141.845 308.934 140.474 306.496 137.081 307.571C133.616 308.575 135.71 310.009 135.71 310.009L127.047 309.651C127.047 309.651 122.933 304.489 124.593 298.61C126.325 292.731 144.661 294.81 144.661 294.81H144.589Z" fill="black"/>
<path d="M91.3874 296.961C89.0775 301.764 90.2325 305.922 92.1093 308.432L101.782 308.862C101.782 308.862 105.897 307.93 107.774 305.421C109.65 302.911 111.455 302.696 114.198 303.843C116.941 304.99 121.778 301.979 122.066 299.255C122.283 296.53 123.005 293.734 117.013 293.734C111.022 293.734 107.557 292.802 106.402 292.372C105.247 291.942 91.3874 296.961 91.3874 296.961Z" fill="black"/>
<path d="M102.215 52.5524L112.105 41.2963C112.105 41.2963 114.92 40.3643 116.147 37.0663C117.447 33.7683 117.013 23.5876 116.797 16.9917C116.58 10.4675 119.396 5.59221 122.211 3.87153C125.026 2.15085 127.48 2.00746 127.48 2.00746C127.48 2.00746 129.069 1.00373 131.378 0.143387C133.616 -0.716953 143.434 1.50559 146.032 3.79983C148.631 6.09407 157.221 12.69 156.066 14.7692C154.911 16.92 154.334 15.5578 154.334 15.5578C154.839 17.7087 154.622 23.516 153.9 25.0215C153.179 26.5988 152.024 28.678 152.024 28.678C152.024 28.678 153.612 36.7795 143.794 46.8885C140.907 49.828 136.792 47.7489 136.792 47.7489C134.771 48.9677 139.03 47.6772 138.597 49.6129C138.164 51.5487 153.179 52.2656 154.695 57.4277C156.283 62.5897 163.14 77.5023 165.739 81.7323C165.739 81.7323 174.04 94.1355 175.845 100.516C177.722 106.969 176.783 114.282 172.597 116.146C168.482 118.01 161.985 115.214 154.622 107.399C147.259 99.5843 148.198 88.1131 148.198 88.1131C148.198 88.1131 150.075 100.516 153.756 111.486C157.438 122.527 159.748 130.27 159.748 135.79C159.748 141.311 157.438 141.311 156.066 141.741C154.695 142.171 156.066 144.967 156.066 144.967C156.066 144.967 156.499 150.488 154.695 162.389C152.818 174.291 152.385 204.187 152.385 209.206C152.385 214.225 153.323 219.745 150.508 223.473C147.765 227.13 145.455 238.601 144.949 254.23C144.516 269.86 144.733 280.758 147.981 286.278C151.23 291.799 150.941 291.584 151.446 295.24C149.136 298.466 132.461 298.825 128.635 301.119C123.51 304.202 124.16 305.277 124.16 305.277C124.16 305.277 119.901 291.01 119.684 284.199C118.313 241.254 125.098 236.378 125.531 224.405C125.965 212.432 125.531 193.433 125.531 193.433C125.531 193.433 119.757 220.39 116.869 228.922C113.909 237.669 113.404 240.393 112.033 244.05C110.661 247.706 108.568 278.678 110.445 285.131C112.321 291.584 114.487 292.587 114.487 292.587C114.487 292.587 88.7166 303.27 86.4788 300.76C82.3642 296.029 87.8503 284.342 87.4172 276.456C86.7675 265.845 90.1603 228.277 94.7802 217.666C99.4001 207.127 103.515 180.456 101.205 171.781C98.8948 163.034 99.3279 149.269 103.515 141.956C103.515 141.956 96.5848 141.956 97.5232 135.073C98.4617 128.191 100.266 121.738 98.8948 113.923C97.5232 106.109 88.2834 73.0572 90.5934 66.1745C92.9033 59.2917 102.143 52.409 102.143 52.409L102.215 52.5524Z" fill="black"/>
<path d="M118.602 131.489C115.209 129.481 83.447 133.639 80.9205 137.081C78.394 140.522 78.394 169.989 81.4258 173.43C84.4576 176.872 126.181 175.007 126.181 175.007L118.529 131.489H118.602Z" fill="black"/>
<path d="M94.1305 60.2955C91.7484 65.099 87.8503 133.496 85.6848 146.831C90.6656 151.491 90.0159 148.839 90.0159 148.839C90.0159 148.839 93.1921 117.508 95.863 64.8123C96.0073 62.1595 94.1305 60.3672 94.1305 60.3672V60.2955Z" fill="black"/>
</g>
<defs>
<clipPath id="clip0_0_2845">
<rect width="177" height="346" fill="white"/>
</clipPath>
</defs>
</svg>
