<?xml version="1.0" encoding="UTF-8" ?>
<!DOCTYPE svg PUBLIC "-//W3C//DTD SVG 1.1//EN" "http://www.w3.org/Graphics/SVG/1.1/DTD/svg11.dtd">
<svg width="1536pt" height="1024pt" viewBox="0 0 1536 1024" version="1.1" xmlns="http://www.w3.org/2000/svg">
<g id="#fefefeff">
</g>
<g id="#1c234fff">
<path fill="#1c234f" opacity="1.00" d=" M 656.01 229.06 C 672.38 215.87 693.11 208.56 713.96 206.96 C 730.30 205.95 746.81 208.59 762.02 214.66 C 779.76 207.95 799.10 204.95 817.96 207.72 C 839.65 210.77 860.47 220.56 876.30 235.76 C 894.02 252.43 905.73 275.59 907.68 299.92 C 908.67 306.50 907.84 313.16 908.39 319.76 C 909.76 320.52 911.45 320.06 912.97 320.21 C 931.32 320.09 949.67 320.19 968.03 320.15 C 971.67 320.18 975.42 319.90 978.97 320.95 C 987.09 323.15 993.78 330.44 994.47 338.95 C 1000.57 397.68 1006.22 456.45 1012.80 515.12 C 1015.63 542.74 1018.50 570.35 1021.47 597.96 C 1023.58 624.01 1026.85 649.95 1029.62 675.94 C 1031.77 699.31 1034.57 722.60 1036.71 745.96 C 1037.37 753.59 1039.44 762.04 1035.02 768.96 C 1031.28 775.72 1023.55 779.42 1015.97 779.15 C 849.98 779.20 683.98 779.17 517.99 779.18 C 509.32 779.11 500.62 773.59 497.69 765.28 C 495.64 760.07 496.49 754.40 496.97 749.00 C 500.93 696.27 505.01 643.54 509.31 590.84 C 513.75 590.81 518.19 590.83 522.64 590.77 C 518.94 646.56 513.56 702.25 509.95 758.05 C 509.97 761.86 513.03 765.52 516.94 765.65 C 683.93 765.62 850.92 765.54 1017.90 765.63 C 1021.74 765.51 1024.51 761.63 1024.30 757.98 C 1016.75 685.01 1009.29 612.03 1001.49 539.08 C 995.65 479.34 988.65 419.72 982.96 359.97 C 982.31 353.63 981.31 347.33 981.07 340.95 C 981.12 336.77 977.11 333.27 973.02 333.60 C 950.87 333.62 928.72 333.55 906.57 333.62 C 906.35 338.31 906.34 343.00 906.54 347.69 C 906.69 355.77 906.31 363.85 906.67 371.93 C 916.96 381.19 918.15 398.56 908.97 408.99 C 898.98 421.23 878.38 421.81 867.48 410.49 C 856.87 400.39 857.38 381.76 868.08 371.90 C 868.18 363.80 868.15 355.70 868.14 347.61 C 868.19 342.93 868.17 338.25 868.13 333.58 C 824.34 333.57 780.55 333.55 736.76 333.64 C 736.74 338.27 736.72 342.90 736.80 347.54 C 737.01 355.59 736.60 363.66 737.25 371.70 C 742.91 377.25 746.36 385.10 745.83 393.10 C 745.70 402.75 739.52 411.90 730.68 415.74 C 718.51 421.88 702.17 417.59 694.79 406.08 C 689.48 398.50 689.09 388.17 692.79 379.83 C 694.09 376.72 696.68 374.45 698.46 371.65 C 699.00 363.64 698.31 355.59 698.61 347.56 C 698.68 342.89 698.61 338.23 698.61 333.56 L 698.39 333.70 C 665.09 333.44 631.79 333.54 598.49 333.57 C 598.11 356.04 598.16 378.53 597.87 401.00 C 597.72 419.24 597.27 437.49 597.53 455.73 C 607.72 462.93 618.72 468.99 629.27 475.69 C 629.22 478.54 629.23 481.39 629.28 484.24 C 624.44 483.80 618.90 485.45 614.75 482.21 C 607.88 477.78 600.75 473.75 593.91 469.27 C 583.95 476.19 573.58 482.51 563.88 489.80 C 563.81 501.84 563.51 513.91 564.25 525.93 C 564.60 526.18 565.30 526.68 565.65 526.93 C 574.75 532.96 583.75 539.16 593.16 544.72 C 602.40 538.11 611.99 531.97 621.05 525.10 C 623.75 525.12 626.45 525.14 629.16 525.15 C 629.26 528.51 629.26 531.88 629.29 535.26 C 618.25 542.86 607.27 550.52 596.17 558.02 C 595.86 605.41 595.77 652.80 595.70 700.19 C 616.59 716.19 638.11 731.36 659.34 746.91 C 659.18 748.37 658.78 749.79 658.47 751.24 C 653.20 751.25 647.92 751.04 642.66 751.32 C 625.12 737.91 606.99 725.26 589.19 712.18 C 572.29 725.46 554.95 738.20 538.02 751.45 C 533.55 751.63 529.07 751.65 524.59 751.62 C 524.69 749.39 524.78 747.18 524.82 744.96 C 544.11 730.18 563.61 715.65 582.79 700.71 C 583.07 666.12 583.19 631.52 583.20 596.92 C 576.81 592.47 570.19 588.36 563.38 584.60 C 561.46 583.40 558.94 581.58 559.62 578.98 C 560.34 575.32 564.58 571.26 568.34 573.59 C 573.44 576.27 578.19 579.55 583.15 582.48 C 583.23 572.75 583.38 563.01 583.24 553.28 C 574.89 548.23 566.81 542.73 558.54 537.55 C 556.13 536.00 553.46 534.72 551.50 532.60 C 551.16 516.16 551.42 499.69 551.43 483.24 C 562.14 475.19 573.27 467.72 584.36 460.20 C 584.63 422.63 585.06 385.07 585.49 347.51 C 585.60 342.89 585.56 338.28 585.51 333.66 C 573.66 333.69 561.81 333.71 549.96 333.71 C 546.13 333.79 542.01 336.80 542.19 340.93 C 541.40 354.94 540.08 368.91 538.98 382.90 C 536.95 405.93 535.54 429.01 533.75 452.06 C 531.40 480.97 529.03 509.88 526.59 538.78 C 522.16 538.68 517.72 538.72 513.29 538.69 C 518.21 472.06 523.76 405.49 528.69 338.87 C 529.65 328.10 540.35 319.72 550.94 320.21 C 572.48 320.20 594.04 320.04 615.58 320.29 C 616.66 315.96 615.89 311.47 616.19 307.07 C 616.88 276.84 631.99 247.39 656.01 229.06 M 679.82 230.06 C 661.43 238.93 646.75 254.59 637.85 272.85 C 630.75 287.52 628.95 304.10 629.60 320.21 C 634.20 320.18 638.80 320.20 643.40 320.28 C 643.64 315.15 643.28 310.01 643.57 304.88 C 644.82 290.03 650.45 275.53 659.85 263.94 C 669.06 252.00 682.03 243.28 696.20 238.31 C 712.65 233.06 730.87 232.56 747.22 238.46 C 739.84 244.96 732.45 251.67 727.07 260.00 C 722.53 267.08 718.06 274.37 715.62 282.49 C 713.02 290.39 711.54 298.68 711.28 306.99 C 711.27 330.99 711.22 354.99 711.26 378.99 C 711.80 382.20 708.03 383.36 706.90 385.95 C 703.00 392.21 707.09 400.85 713.72 403.17 C 720.46 406.11 729.25 401.42 730.55 394.17 C 731.78 389.30 729.26 384.31 725.38 381.42 C 725.39 355.93 725.37 330.44 725.36 304.95 C 726.52 287.35 734.42 270.29 746.96 257.89 C 751.37 253.22 756.31 248.81 762.18 246.06 C 779.19 256.13 791.80 273.38 796.79 292.47 C 799.40 301.50 798.96 310.95 799.14 320.22 C 803.69 320.23 808.24 320.20 812.79 320.13 C 813.99 307.99 812.32 295.72 809.01 284.03 C 803.31 266.06 791.63 250.31 776.88 238.69 C 793.13 233.20 811.17 232.50 827.55 237.83 C 841.25 242.52 853.93 250.69 863.13 261.96 C 873.80 274.82 880.43 291.15 880.63 307.95 C 880.53 332.37 880.70 356.79 880.50 381.21 C 872.32 385.79 873.46 399.37 882.04 402.83 C 889.00 406.58 898.34 401.64 899.93 394.10 C 901.20 389.19 898.38 384.27 894.75 381.14 C 894.71 358.44 894.72 335.73 894.68 313.03 C 894.86 303.75 893.90 294.39 891.32 285.46 C 886.87 269.42 877.35 255.04 865.14 243.84 C 855.19 234.57 842.90 228.12 830.00 224.00 C 808.55 217.66 785.00 219.62 764.50 228.36 C 762.27 229.63 759.99 228.24 757.88 227.46 C 733.10 217.21 703.77 217.74 679.82 230.06 M 659.62 293.45 C 656.60 301.89 656.80 310.94 656.88 319.77 C 670.47 320.56 684.12 320.03 697.74 320.08 C 697.82 316.07 697.83 312.06 697.79 308.05 C 697.62 300.65 699.22 293.36 700.55 286.12 C 703.70 272.11 710.74 259.32 718.98 247.68 C 692.27 248.52 666.87 267.55 659.62 293.45 M 804.99 247.74 C 811.02 255.89 816.09 264.76 820.06 274.08 C 825.86 288.71 826.56 304.65 826.57 320.19 C 840.14 320.16 853.71 320.16 867.29 320.18 C 867.56 312.79 867.58 305.32 866.06 298.05 C 860.69 269.80 833.72 247.64 804.99 247.74 M 738.76 308.01 C 738.73 311.86 738.84 315.73 738.64 319.59 C 744.40 320.47 750.24 320.12 756.05 320.17 C 765.92 320.03 775.81 320.41 785.68 319.94 C 785.62 314.61 785.89 309.26 785.27 303.96 C 783.55 287.64 774.45 272.58 761.96 262.18 C 748.17 273.26 739.45 290.32 738.76 308.01 Z" />
<path fill="#1c234f" opacity="1.00" d=" M 708.56 453.56 C 711.31 452.08 713.81 450.02 716.84 449.13 C 719.90 450.12 722.63 451.89 725.41 453.49 C 737.75 460.82 750.54 467.48 762.50 475.41 C 763.07 491.25 762.55 507.15 762.65 523.01 C 762.38 525.01 763.36 527.92 761.00 528.95 C 746.30 537.50 731.62 546.07 716.93 554.63 C 701.52 546.75 686.67 537.81 671.70 529.14 C 670.85 523.20 671.44 517.10 671.28 511.10 C 656.56 511.24 641.84 510.58 627.12 511.10 C 619.72 511.05 612.31 511.08 604.91 511.09 C 603.07 511.22 601.49 510.20 600.08 509.17 C 598.11 506.53 598.26 502.95 600.50 500.53 C 602.72 497.52 606.76 498.60 609.96 498.44 C 630.36 498.34 650.76 498.46 671.16 498.37 C 671.13 490.69 671.07 483.02 671.31 475.35 C 683.71 468.06 696.01 460.58 708.56 453.56 M 703.95 470.96 C 697.21 474.37 691.14 479.00 684.21 482.05 C 684.37 489.14 684.04 496.24 684.34 503.33 C 684.10 509.50 684.13 515.68 684.28 521.86 C 695.05 527.83 705.61 534.16 716.25 540.34 C 727.53 534.02 738.54 527.23 749.78 520.84 C 749.62 509.59 749.82 498.34 749.57 487.10 C 749.67 485.44 749.77 483.80 749.85 482.16 C 738.90 475.81 727.76 469.79 716.93 463.24 C 712.54 465.71 708.42 468.64 703.95 470.96 Z" />
<path fill="#1c234f" opacity="1.00" d=" M 466.34 463.52 C 474.88 462.91 483.49 463.38 492.06 463.21 C 496.84 462.75 501.92 465.95 502.68 470.86 C 503.78 476.15 499.45 481.70 494.04 481.83 C 485.66 482.00 477.28 481.86 468.90 481.88 C 464.09 481.95 459.38 477.98 459.26 473.05 C 458.86 468.67 462.11 464.50 466.34 463.52 Z" />
<path fill="#1c234f" opacity="1.00" d=" M 496.39 552.62 C 504.58 552.26 512.81 552.42 521.02 552.38 C 528.78 552.17 535.34 560.62 532.97 568.07 C 531.87 572.72 527.52 576.32 522.77 576.67 C 516.54 577.06 510.30 576.71 504.07 576.85 C 500.22 576.81 496.02 577.45 492.59 575.26 C 486.61 572.07 484.56 563.72 488.06 557.99 C 489.83 555.04 492.96 553.01 496.39 552.62 Z" />
<path fill="#1c234f" opacity="1.00" d=" M 691.63 561.65 C 693.79 560.15 696.04 562.10 698.00 563.01 C 709.12 569.56 720.46 575.75 731.26 582.84 C 731.21 596.92 731.41 611.00 731.13 625.07 C 731.26 627.05 728.91 627.66 727.64 628.64 C 716.52 634.77 705.77 641.53 694.50 647.38 C 692.66 648.57 690.86 646.81 689.18 646.15 C 677.86 639.78 666.62 633.22 655.48 626.55 C 654.99 620.69 655.38 614.80 655.22 608.93 C 642.45 608.85 629.69 608.97 616.92 608.90 C 613.44 609.04 609.68 605.71 610.28 602.08 C 610.48 599.30 613.32 597.13 616.03 597.18 C 629.07 597.14 642.11 597.25 655.15 597.22 C 655.21 592.40 654.85 587.54 655.51 582.77 C 667.46 575.59 679.39 568.34 691.63 561.65 M 690.57 575.62 C 682.68 579.94 675.22 584.99 667.25 589.17 C 667.19 590.36 667.13 591.56 667.07 592.76 C 666.50 601.90 667.07 611.08 666.80 620.24 C 675.67 625.03 684.27 630.29 693.15 635.08 C 702.02 630.31 710.55 624.94 719.47 620.26 C 719.72 610.78 719.73 601.28 719.62 591.80 C 719.66 591.17 719.73 589.91 719.76 589.28 C 711.56 584.38 703.31 579.56 695.01 574.83 C 693.54 573.53 691.93 574.96 690.57 575.62 Z" />
<path fill="#1c234f" opacity="1.00" d=" M 794.82 580.85 C 799.24 581.23 803.68 581.20 808.11 581.10 C 808.05 587.02 808.12 592.94 808.32 598.86 C 811.61 599.06 814.91 599.12 818.22 599.10 C 818.14 593.03 818.14 586.96 818.27 580.90 C 822.80 581.23 827.34 581.10 831.88 580.91 C 831.89 586.88 831.84 592.85 831.98 598.83 C 840.38 599.46 849.64 600.82 855.86 607.07 C 862.87 613.76 864.84 625.92 858.86 633.87 C 856.60 637.34 852.80 639.18 849.73 641.79 C 855.90 643.58 861.87 647.18 864.90 653.06 C 869.25 662.40 867.47 674.69 859.62 681.66 C 852.41 688.57 841.84 690.18 832.24 689.77 C 831.86 695.78 831.86 701.81 831.88 707.83 C 827.31 707.77 822.74 707.90 818.18 707.85 C 818.04 701.83 818.27 695.81 818.13 689.80 C 814.84 689.75 811.56 689.65 808.28 689.55 C 808.08 695.66 808.08 701.77 808.23 707.88 C 803.74 707.76 799.25 707.80 794.78 707.68 C 794.56 701.72 794.71 695.75 794.60 689.79 C 787.47 689.90 780.34 689.59 773.22 689.80 C 773.17 684.84 773.20 679.88 773.27 674.93 C 777.82 674.86 782.37 674.82 786.93 674.69 C 787.95 659.51 787.21 644.24 787.40 629.02 C 787.07 623.79 788.21 618.40 786.56 613.33 C 781.98 613.13 777.40 613.22 772.83 613.21 C 772.69 608.43 772.71 603.65 772.73 598.87 C 780.08 598.70 787.42 599.30 794.76 598.88 C 794.79 592.87 794.72 586.86 794.82 580.85 M 807.28 613.33 C 806.93 621.06 807.26 628.81 807.23 636.55 C 813.83 636.77 820.45 636.63 827.06 636.66 C 831.48 636.75 836.11 635.41 839.37 632.32 C 841.97 629.28 842.26 624.80 841.18 621.09 C 839.58 616.29 834.27 614.10 829.67 613.38 C 822.21 613.12 814.74 613.22 807.28 613.33 M 807.32 650.08 C 807.22 658.30 807.18 666.51 807.29 674.73 C 815.20 674.88 823.11 674.73 831.02 674.76 C 835.47 674.86 840.17 673.57 843.36 670.32 C 847.29 665.61 847.07 657.74 842.51 653.52 C 838.72 650.57 833.75 649.58 829.03 649.81 C 821.79 650.01 814.54 649.62 807.32 650.08 Z" />
<path fill="#1c234f" opacity="1.00" d=" M 458.38 616.53 C 466.26 615.96 474.21 616.37 482.12 616.25 C 486.66 616.06 490.95 619.52 491.59 624.05 C 492.64 629.57 487.59 634.94 482.09 634.71 C 476.71 634.68 471.33 634.59 465.96 634.67 C 461.24 634.96 455.48 634.83 452.69 630.31 C 449.22 625.26 452.30 617.62 458.38 616.53 Z" />
<path fill="#1c234f" opacity="1.00" d=" M 623.22 629.26 C 629.14 626.65 636.89 631.42 636.88 637.97 C 637.43 643.39 632.42 648.68 626.94 648.25 C 620.29 648.47 614.68 640.15 618.19 634.24 C 619.34 632.15 620.93 630.13 623.22 629.26 Z" />
</g>
<g id="#feb907ff">
<path fill="#feb907" opacity="1.00" d=" M 540.32 546.84 C 544.92 480.38 551.01 414.01 555.70 347.56 C 565.63 347.57 575.56 347.45 585.49 347.51 C 585.06 385.07 584.63 422.63 584.36 460.20 C 573.27 467.72 562.14 475.19 551.43 483.24 C 551.42 499.69 551.16 516.16 551.50 532.60 C 553.46 534.72 556.13 536.00 558.54 537.55 C 566.81 542.73 574.89 548.23 583.24 553.28 C 583.38 563.01 583.23 572.75 583.15 582.48 C 578.19 579.55 573.44 576.27 568.34 573.59 C 564.58 571.26 560.34 575.32 559.62 578.98 C 558.94 581.58 561.46 583.40 563.38 584.60 C 570.19 588.36 576.81 592.47 583.20 596.92 C 583.19 631.52 583.07 666.12 582.79 700.71 C 563.61 715.65 544.11 730.18 524.82 744.96 C 527.32 702.58 531.46 660.29 534.63 617.95 C 535.74 607.32 536.09 596.61 537.43 586.01 C 538.95 583.74 541.32 582.14 542.83 579.83 C 550.11 570.15 548.77 555.38 540.32 546.84 Z" />
<path fill="#feb907" opacity="1.00" d=" M 611.60 347.59 C 640.60 347.44 669.60 347.61 698.61 347.56 C 698.31 355.59 699.00 363.64 698.46 371.65 C 696.68 374.45 694.09 376.72 692.79 379.83 C 689.09 388.17 689.48 398.50 694.79 406.08 C 702.17 417.59 718.51 421.88 730.68 415.74 C 739.52 411.90 745.70 402.75 745.83 393.10 C 746.36 385.10 742.91 377.25 737.25 371.70 C 736.60 363.66 737.01 355.59 736.80 347.54 C 780.58 347.66 824.36 347.47 868.14 347.61 C 868.15 355.70 868.18 363.80 868.08 371.90 C 857.38 381.76 856.87 400.39 867.48 410.49 C 878.38 421.81 898.98 421.23 908.97 408.99 C 918.15 398.56 916.96 381.19 906.67 371.93 C 906.31 363.85 906.69 355.77 906.54 347.69 C 926.95 347.51 947.37 347.40 967.78 347.62 C 969.29 366.15 971.65 384.60 973.34 403.12 C 976.47 434.78 980.22 466.39 983.16 498.07 C 985.96 524.01 988.79 549.94 991.25 575.90 C 997.75 634.38 1003.37 692.95 1009.43 751.48 C 892.43 751.62 775.41 751.56 658.40 751.51 L 658.47 751.24 C 658.78 749.79 659.18 748.37 659.34 746.91 C 657.51 743.19 654.09 740.62 651.54 737.43 C 637.69 722.79 623.94 708.02 609.58 693.88 C 609.54 656.92 609.64 619.96 609.76 583.00 C 609.85 577.33 609.51 571.63 610.05 565.98 C 620.26 557.43 631.74 550.43 642.25 542.23 C 643.62 541.27 643.06 539.41 643.24 538.02 C 643.02 529.14 643.37 520.25 643.18 511.37 C 638.26 511.64 632.71 509.87 628.36 512.93 C 629.02 516.96 629.03 521.07 629.16 525.15 C 626.45 525.14 623.75 525.12 621.05 525.10 C 611.99 531.97 602.40 538.11 593.16 544.72 C 583.75 539.16 574.75 532.96 565.65 526.93 C 566.82 523.75 567.27 520.38 567.19 517.01 C 567.08 508.74 567.28 500.47 567.11 492.21 C 575.91 485.67 585.13 479.71 594.20 473.54 C 602.04 477.77 609.05 483.43 617.19 487.11 C 621.21 487.72 625.32 487.30 629.38 487.71 C 629.44 489.58 629.49 491.45 629.56 493.33 C 634.12 493.24 638.69 493.21 643.26 493.26 C 643.17 484.89 643.72 476.49 643.05 468.15 C 632.69 460.97 621.70 454.67 611.33 447.47 C 611.22 414.18 611.83 380.89 611.60 347.59 M 708.56 453.56 C 696.01 460.58 683.71 468.06 671.31 475.35 C 671.07 483.02 671.13 490.69 671.16 498.37 C 650.76 498.46 630.36 498.34 609.96 498.44 C 606.76 498.60 602.72 497.52 600.50 500.53 C 598.26 502.95 598.11 506.53 600.08 509.17 C 600.30 511.24 601.36 514.21 603.97 513.85 C 612.05 513.59 620.18 514.76 628.21 513.44 C 627.85 512.65 627.49 511.87 627.12 511.10 C 641.84 510.58 656.56 511.24 671.28 511.10 C 671.44 517.10 670.85 523.20 671.70 529.14 C 686.67 537.81 701.52 546.75 716.93 554.63 C 731.62 546.07 746.30 537.50 761.00 528.95 C 763.36 527.92 762.38 525.01 762.65 523.01 C 762.55 507.15 763.07 491.25 762.50 475.41 C 750.54 467.48 737.75 460.82 725.41 453.49 C 722.63 451.89 719.90 450.12 716.84 449.13 C 713.81 450.02 711.31 452.08 708.56 453.56 M 691.63 561.65 C 679.39 568.34 667.46 575.59 655.51 582.77 C 654.85 587.54 655.21 592.40 655.15 597.22 C 642.11 597.25 629.07 597.14 616.03 597.18 C 613.32 597.13 610.48 599.30 610.28 602.08 C 609.68 605.71 613.44 609.04 616.92 608.90 C 629.69 608.97 642.45 608.85 655.22 608.93 C 655.38 614.80 654.99 620.69 655.48 626.55 C 666.62 633.22 677.86 639.78 689.18 646.15 C 690.86 646.81 692.66 648.57 694.50 647.38 C 705.77 641.53 716.52 634.77 727.64 628.64 C 728.91 627.66 731.26 627.05 731.13 625.07 C 731.41 611.00 731.21 596.92 731.26 582.84 C 720.46 575.75 709.12 569.56 698.00 563.01 C 696.04 562.10 693.79 560.15 691.63 561.65 M 794.82 580.85 C 794.72 586.86 794.79 592.87 794.76 598.88 C 787.42 599.30 780.08 598.70 772.73 598.87 C 772.71 603.65 772.69 608.43 772.83 613.21 C 777.40 613.22 781.98 613.13 786.56 613.33 C 788.21 618.40 787.07 623.79 787.40 629.02 C 787.21 644.24 787.95 659.51 786.93 674.69 C 782.37 674.82 777.82 674.86 773.27 674.93 C 773.20 679.88 773.17 684.84 773.22 689.80 C 780.34 689.59 787.47 689.90 794.60 689.79 C 794.71 695.75 794.56 701.72 794.78 707.68 C 799.25 707.80 803.74 707.76 808.23 707.88 C 808.08 701.77 808.08 695.66 808.28 689.55 C 811.56 689.65 814.84 689.75 818.13 689.80 C 818.27 695.81 818.04 701.83 818.18 707.85 C 822.74 707.90 827.31 707.77 831.88 707.83 C 831.86 701.81 831.86 695.78 832.24 689.77 C 841.84 690.18 852.41 688.57 859.62 681.66 C 867.47 674.69 869.25 662.40 864.90 653.06 C 861.87 647.18 855.90 643.58 849.73 641.79 C 852.80 639.18 856.60 637.34 858.86 633.87 C 864.84 625.92 862.87 613.76 855.86 607.07 C 849.64 600.82 840.38 599.46 831.98 598.83 C 831.84 592.85 831.89 586.88 831.88 580.91 C 827.34 581.10 822.80 581.23 818.27 580.90 C 818.14 586.96 818.14 593.03 818.22 599.10 C 814.91 599.12 811.61 599.06 808.32 598.86 C 808.12 592.94 808.05 587.02 808.11 581.10 C 803.68 581.20 799.24 581.23 794.82 580.85 M 623.22 629.26 C 620.93 630.13 619.34 632.15 618.19 634.24 C 614.68 640.15 620.29 648.47 626.94 648.25 C 632.42 648.68 637.43 643.39 636.88 637.97 C 636.89 631.42 629.14 626.65 623.22 629.26 Z" />
<path fill="#feb907" opacity="1.00" d=" M 684.59 487.15 C 695.51 481.08 706.17 474.56 717.07 468.44 C 727.83 474.22 738.41 480.35 749.29 485.91 C 749.36 486.21 749.50 486.80 749.57 487.10 C 749.82 498.34 749.62 509.59 749.78 520.84 C 738.54 527.23 727.53 534.02 716.25 540.34 C 705.61 534.16 695.05 527.83 684.28 521.86 C 684.13 515.68 684.10 509.50 684.34 503.33 C 684.76 497.94 684.33 492.54 684.59 487.15 Z" />
<path fill="#feb907" opacity="1.00" d=" M 667.07 592.76 C 676.11 588.06 684.59 582.35 693.82 578.00 C 702.33 582.76 710.67 587.87 719.62 591.80 C 719.73 601.28 719.72 610.78 719.47 620.26 C 710.55 624.94 702.02 630.31 693.15 635.08 C 684.27 630.29 675.67 625.03 666.80 620.24 C 667.07 611.08 666.50 601.90 667.07 592.76 Z" />
<path fill="#feb907" opacity="1.00" d=" M 807.28 613.33 C 814.74 613.22 822.21 613.12 829.67 613.38 C 834.27 614.10 839.58 616.29 841.18 621.09 C 842.26 624.80 841.97 629.28 839.37 632.32 C 836.11 635.41 831.48 636.75 827.06 636.66 C 820.45 636.63 813.83 636.77 807.23 636.55 C 807.26 628.81 806.93 621.06 807.28 613.33 Z" />
<path fill="#feb907" opacity="1.00" d=" M 807.32 650.08 C 814.54 649.62 821.79 650.01 829.03 649.81 C 833.75 649.58 838.72 650.57 842.51 653.52 C 847.07 657.74 847.29 665.61 843.36 670.32 C 840.17 673.57 835.47 674.86 831.02 674.76 C 823.11 674.73 815.20 674.88 807.29 674.73 C 807.18 666.51 807.22 658.30 807.32 650.08 Z" />
<path fill="#feb907" opacity="1.00" d=" M 538.02 751.45 C 554.95 738.20 572.29 725.46 589.19 712.18 C 606.99 725.26 625.12 737.91 642.66 751.32 C 628.47 751.86 614.23 751.40 600.02 751.56 C 579.35 751.48 558.69 751.75 538.02 751.45 Z" />
</g>
</svg>
