<svg width="198" height="355" viewBox="0 0 198 355" fill="none" xmlns="http://www.w3.org/2000/svg">
<g opacity="0.6">
<g style="mix-blend-mode:multiply" opacity="0.03">
<path d="M127.827 308.294C131.617 309.89 141.089 318.452 149.439 326.941C157.79 335.43 165.017 343.847 164.175 345.153C162.21 348.2 152.667 350.232 139.335 351.538C125.933 352.844 108.812 353.424 91.8308 353.715C58.1498 354.15 25.3809 353.062 25.2406 353.062C25.2406 353.062 18.1535 346.822 14.2241 338.768C10.2946 330.714 9.66311 320.701 22.7847 313.083C26.8545 310.689 32.7487 308.947 38.0815 307.569C46.0807 305.61 53.5187 304.666 53.659 304.666C56.5359 304.449 70.0083 304.449 84.7438 304.884C86.498 304.884 88.3224 304.957 90.1468 305.029C106.987 305.61 123.968 306.625 127.827 308.294Z" fill="#E0E0E0"/>
</g>
<g style="mix-blend-mode:multiply" opacity="0.06">
<path d="M127.126 308.584C130.845 310.181 139.966 318.525 147.896 326.723C155.825 334.922 162.842 343.049 161.999 344.355C160.035 347.33 150.632 349.289 137.651 350.595C124.529 351.901 107.689 352.481 91.1289 352.699C58.2899 353.134 26.3631 352.118 26.0122 352.046C25.8719 352.046 19.0655 346.023 15.2062 338.187C11.347 330.351 10.3646 320.774 23.0652 313.301C27.1349 310.906 33.0993 309.237 38.2216 308.004C46.0104 306.045 53.3079 305.174 53.6588 305.174C56.676 304.957 69.938 304.957 84.4629 305.392C86.2171 305.392 88.0415 305.464 89.7957 305.537C106.496 306.045 123.336 307.061 127.126 308.729V308.584Z" fill="#E0E0E0"/>
</g>
<g style="mix-blend-mode:multiply" opacity="0.1">
<path d="M126.354 308.947C130.003 310.543 138.704 318.67 146.212 326.506C153.72 334.342 160.526 342.25 159.614 343.556C157.579 346.386 148.457 348.345 135.686 349.579C122.775 350.812 106.356 351.393 90.0766 351.683C58.0796 352.118 26.9948 351.102 26.4334 351.102C26.2229 351.102 19.627 345.225 15.7677 337.752C11.9084 330.279 10.9963 320.774 23.346 313.518C27.3456 311.124 33.3801 309.6 38.3621 308.367C45.9403 306.48 53.1677 305.609 53.6589 305.609C56.8165 305.392 69.8679 305.392 84.1824 305.755C85.9366 305.755 87.6908 305.827 89.445 305.9C106.075 306.408 122.705 307.423 126.354 309.02V308.947Z" fill="#E0E0E0"/>
</g>
<g style="mix-blend-mode:multiply" opacity="0.13">
<path d="M125.652 309.237C129.161 310.833 137.511 318.669 144.668 326.287C151.825 333.906 158.351 341.524 157.369 342.758C155.264 345.515 146.352 347.401 133.932 348.562C121.302 349.796 105.233 350.376 89.2347 350.594C58.0798 351.029 27.837 350.086 27.1353 350.086C26.8546 350.086 20.4693 344.354 16.6802 337.171C12.891 329.988 11.7683 320.846 23.6269 313.735C27.6265 311.341 33.7312 309.89 38.5027 308.729C45.8704 306.915 52.9575 306.044 53.6591 305.972C56.8869 305.754 69.798 305.754 83.9019 306.044C85.6561 306.044 87.4104 306.117 89.1646 306.189C105.654 306.625 122.144 307.64 125.723 309.237H125.652Z" fill="#E0E0E0"/>
</g>
<g style="mix-blend-mode:multiply" opacity="0.16">
<path d="M124.88 309.528C128.319 311.124 136.248 318.743 142.984 326.071C149.72 333.399 156.035 340.727 155.053 341.961C152.948 344.573 144.177 346.459 132.108 347.62C119.758 348.781 103.97 349.361 88.3924 349.652C58.0795 350.159 28.6787 349.216 27.7666 349.144C27.4157 349.144 21.2408 343.629 17.4517 336.737C13.4521 329.481 12.3294 320.992 23.7669 314.026C27.6964 311.632 33.9414 310.253 38.5024 309.165C45.6596 307.424 52.6063 306.553 53.5185 306.48C56.8866 306.263 69.5872 306.19 83.4105 306.48C85.0945 306.48 86.8487 306.553 88.603 306.626C104.952 307.061 121.302 308.004 124.81 309.6L124.88 309.528Z" fill="#E0E0E0"/>
</g>
<g style="mix-blend-mode:multiply" opacity="0.19">
<path d="M124.178 309.817C127.547 311.413 135.055 318.742 141.44 325.78C147.825 332.818 153.86 339.856 152.807 341.016C150.632 343.556 142.142 345.297 130.353 346.458C118.214 347.619 102.847 348.127 87.5503 348.417C58.0794 348.925 29.5206 347.982 28.3979 347.982C27.9769 347.982 22.0126 342.613 18.2936 336.01C14.2238 328.972 13.031 320.846 24.1176 314.025C27.9769 311.631 34.2921 310.398 38.7128 309.309C45.6595 307.568 52.536 306.842 53.5886 306.697C57.0268 306.48 69.5871 306.407 83.1998 306.697C84.8839 306.697 86.6381 306.697 88.3221 306.842C104.601 307.278 120.74 308.148 124.178 309.745V309.817Z" fill="#C7C7C7"/>
</g>
<g style="mix-blend-mode:multiply" opacity="0.23">
<path d="M123.478 310.108C126.776 311.705 133.863 318.815 139.897 325.563C145.932 332.311 151.686 339.131 150.633 340.219C148.388 342.614 140.108 344.355 128.67 345.443C116.812 346.532 101.725 347.112 86.8495 347.403C58.2206 347.91 30.5039 347.04 29.2409 346.967C28.7497 346.967 22.9958 341.743 19.2769 335.431C15.2071 328.61 13.8739 320.847 24.5395 314.244C28.3988 311.85 34.7842 310.689 38.9943 309.673C45.7305 308.004 52.4668 307.279 53.6596 307.134C57.2382 306.843 69.588 306.843 82.9902 307.134C84.6743 307.134 86.3583 307.134 88.0424 307.206C104.181 307.569 120.18 308.44 123.478 310.036V310.108Z" fill="#E0E0E0"/>
</g>
<g style="mix-blend-mode:multiply" opacity="0.26">
<path d="M122.705 310.471C125.863 312.068 132.599 318.961 138.212 325.418C143.826 331.876 149.369 338.406 148.247 339.494C146.001 341.816 137.932 343.485 126.775 344.573C115.127 345.661 100.462 346.169 85.8664 346.459C58.0795 346.967 31.2049 346.169 29.7313 346.097C29.17 346.097 23.6266 341.09 19.9778 335.068C15.9081 328.393 14.4345 320.992 24.6792 314.607C28.4683 312.213 34.9238 311.124 38.9936 310.181C45.5193 308.585 52.1152 307.859 53.5186 307.714C57.1673 307.424 69.3767 307.352 82.4983 307.642C84.1824 307.642 85.8664 307.642 87.5505 307.714C103.549 308.077 119.337 308.875 122.635 310.544L122.705 310.471Z" fill="#E0E0E0"/>
</g>
<g style="mix-blend-mode:multiply" opacity="0.29">
<path d="M122.003 310.761C125.091 312.357 131.406 318.96 136.669 325.127C142.212 331.585 147.194 337.535 146.071 338.623C143.756 340.8 135.897 342.468 125.091 343.484C113.724 344.5 99.4091 345.08 85.0947 345.371C58.1498 345.879 32.1172 345.08 30.4331 345.008C29.8016 345.008 24.4687 340.147 20.82 334.415C16.68 327.957 15.1363 320.919 24.9599 314.679C28.6789 312.285 35.2748 311.342 39.134 310.398C45.4492 308.875 51.9749 308.149 53.5187 308.004C57.3078 307.714 69.3066 307.641 82.2177 307.859C83.9018 307.859 85.5157 307.859 87.1997 307.932C103.058 308.222 118.706 309.02 121.933 310.689L122.003 310.761Z" fill="#AEAEAE"/>
</g>
<g style="mix-blend-mode:multiply" opacity="0.32">
<path d="M121.232 311.05C124.249 312.647 130.143 319.032 134.985 324.909C140.177 331.149 144.879 336.808 143.686 337.824C141.37 339.928 133.652 341.524 123.196 342.467C112.11 343.483 98.0759 343.991 84.1825 344.281C58.0797 344.789 32.8891 344.064 31.0647 343.991C30.363 343.991 25.2407 339.275 21.6621 333.906C17.5221 327.666 15.838 320.991 25.2407 314.968C28.9596 312.574 35.5555 311.703 39.2744 310.833C45.3791 309.382 51.7645 308.656 53.5187 308.511C57.4482 308.221 69.2365 308.148 81.9371 308.293C83.551 308.293 85.235 308.293 86.8489 308.366C102.637 308.656 118.074 309.382 121.232 311.05Z" fill="#AEAEAE"/>
</g>
<g style="mix-blend-mode:multiply" opacity="0.35">
<path d="M120.53 311.341C123.407 312.865 128.88 319.032 133.441 324.691C138.283 330.641 142.704 336.01 141.511 337.026C139.125 338.985 131.687 340.581 121.513 341.452C110.636 342.395 97.0237 342.903 83.411 343.266C58.1502 343.774 33.8016 343.121 31.7667 343.048C30.9948 343.048 26.083 338.549 22.5044 333.398C18.2943 327.376 16.5401 321.063 25.5217 315.186C29.1705 312.792 35.9067 312.066 39.4151 311.196C45.3093 309.745 51.5543 309.092 53.519 308.946C57.5187 308.656 69.1667 308.584 81.6568 308.729C83.2706 308.729 84.8845 308.729 86.4984 308.729C102.146 308.946 117.443 309.745 120.46 311.341H120.53Z" fill="#AEAEAE"/>
</g>
<g style="mix-blend-mode:multiply" opacity="0.39">
<path d="M119.828 311.632C122.635 313.156 127.687 319.105 131.827 324.402C136.248 330.134 140.458 335.14 139.195 336.156C136.809 338.042 129.511 339.494 119.688 340.437C109.092 341.38 95.8303 341.888 82.5684 342.178C58.1496 342.759 34.7132 342.033 32.4678 341.96C31.6258 341.96 26.9245 337.607 23.3459 332.746C19.0656 326.941 17.2412 320.919 25.872 315.332C29.5207 312.938 36.2569 312.285 39.6251 311.487C45.2386 310.108 51.4836 309.455 53.5887 309.31C57.7286 309.02 69.1661 308.875 81.3755 309.02C82.9894 309.02 84.6033 309.02 86.2172 309.02C101.724 309.237 116.881 309.963 119.828 311.559V311.632Z" fill="#464646"/>
</g>
<g style="mix-blend-mode:multiply" opacity="0.42">
<path d="M119.057 311.995C121.794 313.519 126.425 319.179 130.214 324.258C134.284 329.699 138.213 334.488 136.95 335.359C134.494 337.173 127.477 338.551 117.934 339.422C107.619 340.292 94.6382 340.873 81.7272 341.163C58.0803 341.744 35.5561 341.091 33.1002 341.018C32.188 341.018 27.6972 336.882 24.1887 332.311C19.9084 326.652 17.9437 321.065 26.1534 315.623C29.7321 313.229 36.6086 312.648 39.8364 311.923C45.2394 310.617 51.3441 310.036 53.6596 309.819C57.8698 309.529 69.167 309.383 81.1658 309.456C82.7797 309.456 84.3234 309.456 85.9373 309.456C101.374 309.601 116.32 310.327 119.197 311.923L119.057 311.995Z" fill="#AEAEAE"/>
</g>
<g style="mix-blend-mode:multiply" opacity="0.45">
<path d="M118.356 312.285C121.022 313.808 125.232 319.25 128.67 324.039C132.389 329.263 136.038 333.689 134.705 334.559C132.249 336.228 125.372 337.607 116.11 338.405C106.006 339.276 93.4457 339.783 80.8153 340.074C58.0104 340.654 36.3282 340.074 33.6618 339.929C32.6794 339.929 28.329 335.938 24.8907 331.657C20.5402 326.215 18.5053 320.919 26.2941 315.695C29.8025 313.3 36.8194 312.865 39.8367 312.139C45.0292 310.906 51.0637 310.326 53.4494 310.108C57.7999 309.818 68.8866 309.672 80.6749 309.745C82.2186 309.745 83.8325 309.745 85.3762 309.745C100.673 309.89 115.479 310.543 118.285 312.139L118.356 312.285Z" fill="#AEAEAE"/>
</g>
<g style="mix-blend-mode:multiply" opacity="0.48">
<path d="M117.583 312.574C120.109 314.098 123.968 319.249 126.986 323.748C130.354 328.682 133.722 332.817 132.389 333.688C129.863 335.284 123.267 336.59 114.285 337.388C104.462 338.187 92.2521 338.694 79.9726 339.057C58.0097 339.638 37.1696 339.057 34.3628 338.985C33.3103 338.985 29.1703 335.139 25.8022 331.221C21.3816 325.997 19.2765 321.063 26.6442 316.057C30.1527 313.662 37.1696 313.3 40.0465 312.647C45.0285 311.486 50.9227 310.905 53.5189 310.688C58.0097 310.397 68.8859 310.18 80.4638 310.252C82.0075 310.252 83.5512 310.252 85.1651 310.252C100.322 310.325 114.987 310.978 117.653 312.574H117.583Z" fill="#323232"/>
</g>
<g style="mix-blend-mode:multiply" opacity="0.52">
<path d="M116.881 312.864C119.337 314.388 122.776 319.322 125.442 323.53C128.389 328.246 131.547 332.092 130.143 332.89C127.617 334.341 121.162 335.647 112.531 336.373C102.988 337.171 91.0594 337.679 79.1306 338.042C58.0098 338.622 38.0117 338.042 34.9944 338.042C33.8717 338.042 29.8721 334.414 26.5742 330.713C22.0834 325.634 19.9081 321.136 26.8548 316.275C30.2931 313.88 37.4503 313.59 40.1168 313.01C44.8882 311.849 50.6421 311.341 53.4488 311.123C58.0098 310.833 68.7457 310.688 80.0428 310.615C81.5866 310.615 83.1303 310.615 84.674 310.615C99.6901 310.615 114.215 311.268 116.811 312.937L116.881 312.864Z" fill="#323232"/>
</g>
<g style="mix-blend-mode:multiply" opacity="0.55">
<path d="M116.18 313.156C118.566 314.679 121.513 319.323 123.829 323.241C126.425 327.667 129.302 331.222 127.898 332.02C125.372 333.399 119.057 334.632 110.777 335.285C101.445 336.084 89.9371 336.519 78.2891 336.882C58.0103 337.535 38.8542 337.027 35.6264 336.882C34.4335 336.882 30.6444 333.399 27.4167 329.989C22.8557 325.128 20.5401 320.919 27.136 316.276C30.5743 313.881 37.7315 313.736 40.2576 313.156C44.8185 312.067 50.5022 311.56 53.4493 311.342C58.1506 311.052 68.6759 310.834 79.7626 310.834C81.3063 310.834 82.7799 310.834 84.3236 310.834C99.2696 310.834 113.514 311.414 116.11 313.083L116.18 313.156Z" fill="#323232"/>
</g>
<g style="mix-blend-mode:multiply" opacity="0.58">
<path d="M115.408 313.518C117.654 315.042 120.25 319.395 122.215 323.096C124.46 327.304 127.056 330.496 125.583 331.295C122.986 332.601 116.952 333.761 108.953 334.414C99.9008 335.14 88.744 335.648 77.4468 336.011C58.01 336.664 39.696 336.156 36.3279 336.011C35.0648 336.011 31.416 332.746 28.2584 329.626C23.6273 324.982 21.2416 321.064 27.4164 316.711C30.7845 314.316 38.0821 314.244 40.3977 313.736C44.7481 312.72 50.2915 312.212 53.4491 311.995C58.2206 311.632 68.6055 311.487 79.4817 311.414C80.9553 311.414 82.499 311.414 83.9725 311.414C98.7781 311.414 112.882 311.922 115.408 313.591V313.518Z" fill="#323232"/>
</g>
<g style="mix-blend-mode:multiply" opacity="0.61">
<path d="M114.707 313.809C116.882 315.333 119.618 319.178 120.601 322.879C123.057 326.361 124.881 329.772 123.337 330.497C120.741 331.731 114.847 332.746 107.199 333.399C98.3573 334.125 87.5513 334.56 76.605 334.923C58.0102 335.576 40.5382 335.141 36.9596 334.996C35.6264 334.996 32.1179 331.948 29.1007 329.046C24.3994 324.62 21.9435 321.065 27.7675 316.857C31.0654 314.462 38.4331 314.535 40.6084 314.027C44.7483 313.084 50.1513 312.576 53.5194 312.358C58.4313 311.995 68.6057 311.778 79.2012 311.705C80.6748 311.705 82.1483 311.705 83.692 311.705C98.3573 311.705 112.321 312.14 114.707 313.809Z" fill="#464646"/>
</g>
<g style="mix-blend-mode:multiply" opacity="0.65">
<path d="M113.934 314.1C116.039 315.551 118.425 319.179 118.986 322.589C121.091 325.854 122.635 328.901 121.021 329.554C118.355 330.643 112.741 331.658 105.373 332.239C96.8127 332.892 86.3576 333.327 75.7621 333.762C58.0093 334.415 41.3793 334.053 37.5902 333.908C36.1868 333.908 32.8187 331.005 29.8716 328.393C25.1001 324.112 22.5741 320.92 27.9771 317.002C31.275 314.608 38.7129 314.753 40.6776 314.317C44.6071 313.447 49.9399 312.939 53.4484 312.721C58.5005 312.358 68.4645 312.141 78.8495 312.068C80.323 312.068 81.7966 312.068 83.2701 312.068C97.8652 311.996 111.618 312.431 113.934 314.1Z" fill="#323232"/>
</g>
<g style="mix-blend-mode:multiply" opacity="0.68">
<path d="M113.233 314.389C115.268 315.84 117.233 319.178 117.443 322.37C119.268 325.345 120.46 328.175 118.847 328.755C116.18 329.771 110.707 330.714 103.69 331.295C95.4102 331.948 85.3059 332.383 74.9911 332.746C58.0804 333.399 42.2924 333.036 38.3629 332.891C36.8894 332.891 33.6616 330.206 30.8549 327.884C25.9431 323.821 23.3468 320.992 28.399 317.219C31.6267 314.824 39.1348 315.042 40.9592 314.679C44.6781 313.808 49.8706 313.446 53.5896 313.155C58.7119 312.793 68.5355 312.502 78.71 312.43C80.1836 312.43 81.587 312.43 83.0605 312.43C97.5153 312.285 111.128 312.793 113.373 314.389H113.233Z" fill="#323232"/>
</g>
<g style="mix-blend-mode:multiply" opacity="0.71">
<path d="M112.461 314.678C114.356 316.129 115.97 319.249 115.759 322.152C117.233 324.836 118.145 327.376 116.461 327.956C113.794 328.899 108.462 329.77 101.796 330.278C93.7262 330.858 83.9727 331.294 74.0087 331.729C57.94 332.382 42.9941 332.092 38.8541 331.947C37.3104 331.947 34.223 329.48 31.4864 327.376C26.5044 323.53 23.838 320.991 28.4691 317.435C31.6267 315.041 39.2751 315.404 40.889 315.041C44.3975 314.243 49.5198 313.88 53.3089 313.59C58.5716 313.227 68.1847 312.937 78.1487 312.792C79.552 312.792 81.0256 312.792 82.429 312.792C96.7434 312.647 110.216 313.082 112.391 314.678H112.461Z" fill="#323232"/>
</g>
<g style="mix-blend-mode:multiply" opacity="0.74">
<path d="M111.759 314.969C113.583 316.421 114.846 319.25 114.215 321.862C115.337 324.257 115.969 326.578 114.215 327.086C111.478 327.957 106.426 328.755 100.041 329.19C92.2518 329.771 82.8492 330.134 73.236 330.569C58.0094 331.222 43.9055 331.004 39.6252 330.787C38.0113 330.787 34.7133 328.973 32.4679 326.724C26.8544 324.112 24.6792 320.846 28.8893 317.581C32.0469 315.187 39.7655 315.622 41.1689 315.332C44.4668 314.607 49.4488 314.244 53.4484 313.954C58.7812 313.591 68.254 313.301 77.9373 313.156C79.3407 313.156 80.8143 313.156 82.2176 313.156C96.3918 312.938 109.724 313.373 111.759 315.042V314.969Z" fill="#323232"/>
</g>
<g style="mix-blend-mode:multiply" opacity="0.77">
<path d="M111.058 315.332C112.812 316.783 113.654 319.323 112.601 321.717C113.443 323.821 113.724 325.853 111.97 326.361C109.233 327.159 104.322 327.884 98.287 328.247C90.779 328.755 81.657 329.19 72.3947 329.626C58.0101 330.279 44.7482 330.061 40.2574 329.916C38.5733 329.916 35.7666 327.884 33.2405 326.288C27.9778 322.95 25.2412 320.919 29.1005 317.871C32.188 315.405 39.9767 316.058 41.2397 315.767C44.3272 315.114 49.1688 314.752 53.379 314.461C58.8521 314.099 68.1144 313.736 77.5872 313.591C78.9906 313.591 80.394 313.591 81.7973 313.518C95.9013 313.3 109.023 313.663 110.988 315.332H111.058Z" fill="#323232"/>
</g>
<g style="mix-blend-mode:multiply" opacity="0.81">
<path d="M110.285 315.622C111.899 317.073 112.39 319.394 110.987 321.499C111.478 323.385 111.478 325.126 109.724 325.562C106.917 326.215 102.286 326.868 96.4621 327.303C89.1645 327.811 80.4636 328.174 71.5522 328.609C58.0096 329.262 45.5897 329.117 40.8884 328.972C39.1341 328.972 36.4677 327.158 34.082 325.779C28.7491 322.66 25.9424 320.918 29.4508 318.088C32.4681 315.622 40.3972 316.347 41.4497 316.129C44.3266 315.549 49.0981 315.186 53.4486 314.896C58.9919 314.533 68.1139 314.17 77.3762 313.953C78.7795 313.953 80.1829 313.953 81.5161 313.88C95.4797 313.663 108.461 313.88 110.356 315.622H110.285Z" fill="#323232"/>
</g>
<g style="mix-blend-mode:multiply" opacity="0.84">
<path d="M109.583 315.912C111.127 317.363 111.268 319.395 109.443 321.208C109.583 322.805 109.303 324.256 107.478 324.691C104.672 325.272 100.181 325.852 94.7077 326.215C87.6908 326.65 79.3407 327.086 70.7099 327.521C58.0094 328.174 46.4315 328.101 41.5899 327.884C39.7655 327.884 37.1692 326.36 34.9238 325.199C29.3805 322.442 26.5737 320.846 29.7313 318.306C32.8889 315.767 40.6777 316.71 41.5899 316.492C44.1861 315.912 48.8874 315.622 53.4484 315.331C59.1321 314.969 68.0435 314.533 77.0251 314.388C78.4285 314.388 79.7617 314.388 81.0949 314.316C94.9182 314.025 107.689 314.316 109.583 315.984V315.912Z" fill="#323232"/>
</g>
<g style="mix-blend-mode:multiply" opacity="0.87">
<path d="M108.812 316.203C110.285 317.581 110.005 319.395 107.759 320.992C107.619 322.298 106.988 323.531 105.163 323.821C102.356 324.329 98.006 324.837 92.8836 325.127C86.1474 325.563 78.078 325.925 69.7981 326.361C57.9395 327.014 47.2037 326.941 42.1515 326.796C40.257 326.796 37.8011 325.49 35.696 324.547C30.0123 322.08 27.2056 320.701 29.9422 318.379C32.8893 315.913 40.9587 316.856 41.6604 316.711C44.0461 316.203 48.6071 315.913 53.3786 315.622C59.2026 315.26 67.9035 314.824 76.6746 314.607C78.0078 314.607 79.4112 314.534 80.7444 314.534C94.4975 314.244 107.058 314.461 108.812 316.13V316.203Z" fill="#323232"/>
</g>
<g style="mix-blend-mode:multiply" opacity="0.9">
<path d="M108.111 316.492C109.514 317.871 108.812 319.467 106.216 320.773C105.725 321.789 104.813 322.732 102.918 323.022C100.041 323.458 95.9714 323.893 91.1297 324.183C84.604 324.546 76.9556 324.909 69.0266 325.417C58.01 326.07 48.1162 326.07 42.8536 325.852C40.8888 325.852 38.5733 324.836 36.5384 324.111C30.7144 322.007 27.8374 320.773 30.2232 318.669C33.1001 316.13 41.3099 317.29 41.801 317.145C43.9763 316.71 48.4671 316.42 53.3789 316.13C59.2731 315.694 67.8337 315.331 76.3943 315.041C77.7275 315.041 79.0607 314.969 80.3939 314.896C94.0067 314.533 106.427 314.751 108.111 316.42V316.492Z" fill="#323232"/>
</g>
<g style="mix-blend-mode:multiply" opacity="0.94">
<path d="M107.408 316.857C108.742 318.235 107.689 319.541 104.602 320.557C103.76 321.283 102.567 322.008 100.672 322.226C97.7952 322.589 93.8658 322.879 89.375 323.169C83.1299 323.532 75.8324 323.822 68.184 324.33C58.0095 324.983 48.9577 325.055 43.5547 324.838C41.5198 324.765 39.3446 324.04 37.45 323.532C31.4856 321.863 28.6087 320.702 30.5734 318.888C33.3802 316.349 41.6601 317.582 42.011 317.51C43.9757 317.147 48.3262 316.929 53.3783 316.566C59.4128 316.131 67.7629 315.696 76.113 315.478C77.4462 315.478 78.7795 315.405 80.0425 315.333C93.5149 314.97 105.794 315.115 107.408 316.784V316.857Z" fill="#323232"/>
</g>
<g style="mix-blend-mode:multiply" opacity="0.97">
<path d="M106.636 317.145C107.829 318.524 106.356 319.25 102.988 320.338C101.795 320.701 100.321 321.209 98.3565 321.426C95.4094 321.716 91.7607 321.934 87.5505 322.152C81.516 322.442 74.5693 322.805 67.2717 323.313C57.9393 323.966 49.7295 324.038 44.116 323.821C42.0109 323.748 39.976 323.313 38.1516 322.95C32.047 321.789 29.0999 320.628 30.7138 319.032C33.4503 316.42 41.8706 317.871 42.0109 317.798C43.7652 317.508 48.0455 317.291 53.238 316.928C59.3426 316.492 67.5524 316.057 75.6218 315.767C76.955 315.767 78.2181 315.694 79.5513 315.622C92.8834 315.186 105.023 315.332 106.566 317.073L106.636 317.145Z" fill="#464646"/>
</g>
<g style="mix-blend-mode:multiply">
<path d="M42.222 318.234C45.5902 317.943 60.7466 316.783 75.4119 316.202C90.0772 315.622 104.321 315.549 105.865 317.436C107.409 319.322 103.409 320.048 96.0416 320.628C88.6738 321.208 78.0783 321.426 66.4303 322.297C43.1342 324.111 28.469 322.079 31.0652 319.322C33.6614 316.637 42.222 318.234 42.222 318.234Z" fill="#323232"/>
</g>
<g style="mix-blend-mode:multiply" opacity="0.03">
<path d="M138.634 299.66C144.599 298.354 167.053 300.313 171.122 302.708C173.298 303.941 180.244 309.963 186.349 316.638C192.454 323.314 197.787 330.787 196.664 334.923C195.541 339.058 179.262 343.339 160.527 345.806C142.283 348.2 121.864 348.926 112.672 346.314C92.6736 340.582 84.6042 331.73 82.4991 324.112C80.394 316.493 83.9025 310.108 87.2706 309.165C94.0068 307.279 138.494 299.733 138.704 299.66H138.634Z" fill="#E0E0E0"/>
</g>
<g style="mix-blend-mode:multiply" opacity="0.06">
<path d="M138.423 299.878C144.598 298.572 166.701 300.459 170.701 302.708C172.946 304.014 179.752 309.891 185.646 316.421C191.541 322.951 196.663 330.207 195.54 334.27C194.418 338.333 178.419 342.541 159.614 344.936C141.791 347.258 121.723 347.911 112.601 345.299C93.0236 339.712 85.1647 331.077 83.1999 323.677C81.2352 316.276 84.6735 310.109 87.9714 309.165C94.6375 307.352 137.932 299.951 138.353 299.878H138.423Z" fill="#E0E0E0"/>
</g>
<g style="mix-blend-mode:multiply" opacity="0.1">
<path d="M138.143 300.094C144.528 298.716 166.21 300.53 170.14 302.779C172.525 304.157 179.121 309.889 184.875 316.202C190.629 322.514 195.541 329.625 194.348 333.543C193.155 337.461 177.507 341.669 158.632 343.991C141.23 346.168 121.513 346.821 112.461 344.281C93.3046 338.839 85.6562 330.423 83.902 323.167C82.1478 315.912 85.3756 310.034 88.7437 309.164C95.3395 307.35 137.371 300.167 138.143 300.022V300.094Z" fill="#E0E0E0"/>
</g>
<g style="mix-blend-mode:multiply" opacity="0.13">
<path d="M137.862 300.385C144.458 299.007 165.789 300.675 169.648 302.852C172.104 304.231 178.56 309.89 184.173 316.057C189.787 322.225 194.488 329.117 193.225 332.89C191.962 336.663 176.665 340.872 157.72 343.193C140.739 345.298 121.372 345.878 112.391 343.411C93.6555 338.114 86.2878 329.916 84.6739 322.878C83.0601 315.84 86.2176 310.18 89.5858 309.31C96.1115 307.496 136.95 300.603 137.932 300.385H137.862Z" fill="#E0E0E0"/>
</g>
<g style="mix-blend-mode:multiply" opacity="0.16">
<path d="M137.582 300.603C144.318 299.224 165.299 300.748 169.088 302.924C171.684 304.375 177.999 309.817 183.332 315.912C188.665 322.007 193.296 328.682 191.963 332.237C190.629 335.792 175.754 340.073 156.668 342.323C140.108 344.354 121.092 344.935 112.181 342.395C93.9368 337.244 86.7094 329.19 85.306 322.442C83.9026 315.694 86.9199 310.18 90.2178 309.309C96.7435 307.568 136.319 300.82 137.512 300.603H137.582Z" fill="#E0E0E0"/>
</g>
<g style="mix-blend-mode:multiply" opacity="0.19">
<path d="M137.371 300.892C144.318 299.441 164.948 300.892 168.667 302.996C171.333 304.52 177.508 309.817 182.7 315.766C187.893 321.716 192.243 328.174 190.91 331.656C189.507 335.284 174.982 339.347 155.826 341.597C139.687 343.483 121.022 344.063 112.181 341.597C94.3578 336.59 87.3409 328.754 86.1481 322.151C84.9552 315.549 87.8321 310.325 91.1301 309.454C97.5856 307.713 135.968 301.183 137.371 300.892Z" fill="#E0E0E0"/>
</g>
<g style="mix-blend-mode:multiply" opacity="0.23">
<path d="M137.091 301.111C144.248 299.66 164.456 300.966 168.175 303.07C170.912 304.594 176.947 309.818 181.929 315.622C186.91 321.427 191.121 327.666 189.717 331.004C188.244 334.559 174.07 338.477 154.843 340.727C139.125 342.541 120.811 343.048 112.11 340.654C94.7086 335.793 87.9022 328.247 86.8497 321.789C85.7972 315.332 88.6039 310.398 91.9019 309.527C98.2872 307.859 135.407 301.546 137.091 301.183V301.111Z" fill="#C7C7C7"/>
</g>
<g style="mix-blend-mode:multiply" opacity="0.26">
<path d="M136.809 301.329C144.177 299.878 164.035 301.112 167.613 303.071C170.49 304.667 176.314 309.746 181.156 315.405C185.998 321.065 189.927 327.087 188.524 330.279C186.98 333.69 173.157 337.608 153.86 339.784C138.564 341.526 120.6 341.961 111.97 339.567C94.9887 334.851 88.463 327.522 87.5508 321.282C86.6386 315.043 89.3752 310.326 92.603 309.528C98.9182 307.86 134.845 301.765 136.739 301.402L136.809 301.329Z" fill="#AEAEAE"/>
</g>
<g style="mix-blend-mode:multiply" opacity="0.29">
<path d="M136.529 301.619C144.037 300.168 163.614 301.256 167.122 303.143C170.07 304.739 175.823 309.746 180.455 315.187C185.086 320.629 188.875 326.579 187.401 329.626C185.787 332.964 172.315 336.809 152.948 338.986C138.073 340.582 120.46 341.017 111.9 338.696C95.3397 334.125 89.0245 327.014 88.3229 320.919C87.6212 314.825 90.1472 310.399 93.4452 309.6C99.7604 307.932 134.424 302.055 136.529 301.619Z" fill="#AEAEAE"/>
</g>
<g style="mix-blend-mode:multiply" opacity="0.32">
<path d="M136.319 301.837C144.038 300.313 163.194 301.329 166.632 303.215C169.649 304.884 175.263 309.745 179.683 315.042C184.104 320.339 187.753 326.071 186.209 328.973C184.525 332.165 171.403 336.011 151.967 338.115C137.512 339.639 120.32 340.074 111.76 337.68C95.621 333.254 89.5163 326.361 89.0251 320.484C88.5339 314.969 90.9197 310.471 94.2176 309.6C100.463 308.004 133.863 302.272 136.319 301.837Z" fill="#AEAEAE"/>
</g>
<g style="mix-blend-mode:multiply" opacity="0.35">
<path d="M136.037 302.054C143.966 300.53 162.772 301.401 166.14 303.215C169.297 304.956 174.7 309.672 178.981 314.824C183.261 319.975 186.629 325.49 185.085 328.247C183.331 331.367 170.56 335.14 151.054 337.171C137.02 338.622 120.179 338.985 111.689 336.663C95.971 332.382 90.147 325.78 89.7961 319.975C89.5154 314.679 91.7609 310.398 94.9886 309.527C101.163 307.931 133.371 302.489 136.037 301.981V302.054Z" fill="#AEAEAE"/>
</g>
<g style="mix-blend-mode:multiply" opacity="0.39">
<path d="M135.758 302.344C143.897 300.82 162.281 301.546 165.579 303.36C168.877 305.174 174.07 309.745 178.21 314.751C182.35 319.758 185.437 325.054 183.893 327.666C182.069 330.714 169.649 334.487 150.072 336.446C136.459 337.824 119.97 338.114 111.549 335.865C96.2525 331.729 89.5865 325.344 90.4285 319.758C89.376 314.824 92.4634 310.615 95.6912 309.745C101.866 308.149 132.811 302.924 135.687 302.344H135.758Z" fill="#AEAEAE"/>
</g>
<g style="mix-blend-mode:multiply" opacity="0.42">
<path d="M135.476 302.563C143.756 300.966 161.86 301.619 165.088 303.361C168.316 305.102 173.578 309.673 177.437 314.534C181.297 319.396 184.314 324.475 182.7 327.014C180.806 329.916 168.807 333.689 149.089 335.576C135.898 336.882 119.759 337.099 111.409 334.85C96.6029 330.86 90.0071 324.692 91.1298 319.323C90.1474 314.68 93.2348 310.616 96.4626 309.746C102.567 308.222 132.319 303.143 135.406 302.563H135.476Z" fill="#959595"/>
</g>
<g style="mix-blend-mode:multiply" opacity="0.45">
<path d="M135.266 302.853C143.757 301.257 161.509 301.765 164.597 303.506C168.035 305.32 173.017 309.746 176.736 314.462C180.455 319.178 183.191 324.112 181.578 326.434C179.613 329.264 167.965 332.964 148.177 334.778C135.406 336.011 119.618 336.156 111.339 333.98C96.9539 330.134 90.4984 324.185 91.9018 318.961C91.0597 314.535 94.077 310.689 97.2346 309.891C103.269 308.367 131.758 303.506 135.126 302.926L135.266 302.853Z" fill="#323232"/>
</g>
<g style="mix-blend-mode:multiply" opacity="0.48">
<path d="M134.985 303.07C143.685 301.474 161.017 301.836 164.105 303.505C167.613 305.392 172.455 309.672 176.033 314.171C179.612 318.669 182.138 323.458 180.454 325.635C178.419 328.319 167.122 332.02 147.334 333.834C134.985 334.995 119.547 335.067 111.338 332.963C97.374 329.263 91.0588 323.531 92.7429 318.524C91.971 314.316 94.9181 310.688 98.1459 309.89C104.11 308.366 131.406 303.723 134.985 303.07Z" fill="#323232"/>
</g>
<g style="mix-blend-mode:multiply" opacity="0.52">
<path d="M134.704 303.288C143.616 301.691 160.597 301.982 163.544 303.505C167.192 305.464 171.824 309.6 175.192 313.953C178.56 318.307 180.875 322.878 179.191 324.909C177.086 327.521 166.14 331.149 146.282 332.891C134.424 333.979 119.267 334.052 111.198 331.875C97.6551 328.32 91.4802 322.805 93.4449 318.017C92.8134 314.099 95.6903 310.616 98.9181 309.818C104.882 308.367 130.915 303.941 134.774 303.215L134.704 303.288Z" fill="#323232"/>
</g>
<g style="mix-blend-mode:multiply" opacity="0.55">
<path d="M134.424 303.578C143.476 301.909 160.106 302.127 163.053 303.578C166.772 305.537 171.333 309.6 174.491 313.808C177.648 318.016 179.753 322.37 178.069 324.329C175.894 326.868 165.299 330.424 145.371 332.165C133.933 333.181 119.127 333.181 111.128 331.077C98.0066 327.666 91.9721 322.37 94.2175 317.726C93.6562 314.026 96.5331 310.761 99.6907 309.963C105.585 308.511 130.354 304.303 134.494 303.505L134.424 303.578Z" fill="#464646"/>
</g>
<g style="mix-blend-mode:multiply" opacity="0.58">
<path d="M134.214 303.795C143.476 302.127 159.755 302.199 162.632 303.65C166.491 305.682 170.842 309.6 173.859 313.663C176.876 317.726 178.701 321.935 177.017 323.676C174.701 326.07 164.526 329.626 144.528 331.294C133.512 332.238 119.057 332.165 111.128 330.061C98.4274 326.796 92.5332 321.717 94.9891 317.291C94.5681 313.808 97.3749 310.761 100.532 309.963C106.356 308.512 129.933 304.521 134.284 303.723L134.214 303.795Z" fill="#323232"/>
</g>
<g style="mix-blend-mode:multiply" opacity="0.61">
<path d="M133.932 304.087C143.405 302.418 159.333 302.345 162.07 303.796C165.999 305.828 170.209 309.673 173.016 313.592C175.823 317.51 177.507 321.5 175.753 323.096C173.367 325.418 163.543 328.901 143.475 330.497C132.879 331.368 118.776 331.223 110.917 329.191C98.7072 326.071 92.9534 321.21 95.6198 316.929C95.269 313.737 98.0757 310.834 101.163 310.109C106.987 308.73 129.301 304.885 133.862 304.087H133.932Z" fill="#323232"/>
</g>
<g style="mix-blend-mode:multiply" opacity="0.65">
<path d="M133.652 304.304C143.336 302.563 158.843 302.417 161.58 303.796C165.579 305.9 169.649 309.601 172.315 313.373C174.982 317.146 176.385 320.919 174.631 322.443C172.175 324.62 162.772 328.175 142.564 329.699C132.389 330.497 118.636 330.279 110.847 328.32C99.0591 325.273 93.4456 320.702 96.3927 316.639C96.1822 313.664 98.9188 310.979 102.006 310.254C107.76 308.875 128.881 305.247 133.652 304.376V304.304Z" fill="#323232"/>
</g>
<g style="mix-blend-mode:multiply" opacity="0.68">
<path d="M133.372 304.521C143.195 302.78 158.422 302.49 161.018 303.868C165.158 305.972 169.088 309.6 171.544 313.155C174 316.711 175.192 320.338 173.438 321.717C170.842 323.821 161.86 327.304 141.582 328.755C131.828 329.481 118.426 329.19 110.707 327.231C99.3399 324.329 93.8668 319.976 97.0945 316.13C96.9542 313.373 99.6206 310.906 102.778 310.181C108.462 308.875 128.32 305.392 133.372 304.521Z" fill="#5A5A5A"/>
</g>
<g style="mix-blend-mode:multiply" opacity="0.71">
<path d="M133.161 304.812C143.195 303.07 158.071 302.635 160.597 303.941C164.807 306.118 168.596 309.6 170.841 313.011C173.087 316.421 174.069 319.831 172.315 321.064C169.649 323.023 161.018 326.506 140.669 327.885C131.336 328.538 118.285 328.175 110.637 326.288C99.6902 323.531 94.3573 319.396 97.8658 315.695C97.8658 313.228 100.462 310.906 103.549 310.181C109.163 308.875 127.828 305.61 133.091 304.739L133.161 304.812Z" fill="#121212"/>
</g>
<g style="mix-blend-mode:multiply" opacity="0.74">
<path d="M132.88 305.029C143.125 303.288 157.58 302.707 160.036 303.941C164.386 306.19 167.965 309.527 170.07 312.793C172.175 316.058 172.877 319.25 171.122 320.338C168.316 322.152 160.106 325.708 139.687 327.014C130.775 327.594 118.145 327.231 110.496 325.345C99.9711 322.733 94.7786 318.815 98.4976 315.332C98.5677 313.083 101.164 310.979 104.251 310.253C109.865 308.947 127.267 305.972 132.81 304.956L132.88 305.029Z" fill="#323232"/>
</g>
<g style="mix-blend-mode:multiply" opacity="0.77">
<path d="M132.599 305.247C143.054 303.433 157.158 302.78 159.544 304.014C163.964 306.263 167.403 309.528 169.367 312.648C171.332 315.768 171.753 318.743 169.999 319.759C167.122 321.427 159.263 324.983 138.774 326.216C130.283 326.724 118.004 326.216 110.425 324.402C100.321 321.935 95.269 318.235 99.2686 314.97C99.4791 312.938 102.005 311.052 105.093 310.399C110.636 309.165 126.775 306.336 132.599 305.32V305.247Z" fill="#323232"/>
</g>
<g style="mix-blend-mode:multiply" opacity="0.81">
<path d="M132.319 305.538C142.914 303.724 156.667 302.926 158.983 304.087C163.544 306.408 166.842 309.528 168.526 312.503C170.21 315.478 170.491 318.235 168.736 319.106C165.719 320.629 158.281 324.257 137.722 325.418C129.652 325.853 117.724 325.346 110.216 323.532C100.602 321.21 95.6204 317.727 99.9007 314.607C100.181 312.866 102.708 311.125 105.725 310.472C111.198 309.238 126.144 306.626 132.178 305.61L132.319 305.538Z" fill="#323232"/>
</g>
<g style="mix-blend-mode:multiply" opacity="0.84">
<path d="M132.108 305.755C142.914 303.941 156.316 302.998 158.562 304.158C163.193 306.48 166.35 309.528 167.894 312.285C169.438 315.042 169.438 317.581 167.684 318.38C164.596 319.758 157.579 323.458 136.88 324.474C129.301 324.837 117.653 324.257 110.286 322.443C101.093 320.266 96.2518 317.001 100.813 314.099C101.234 312.575 103.69 311.051 106.707 310.398C112.11 309.165 125.863 306.771 132.108 305.682V305.755Z" fill="#323232"/>
</g>
<g style="mix-blend-mode:multiply" opacity="0.87">
<path d="M131.827 306.045C142.844 304.159 155.895 303.143 158 304.232C162.702 306.626 165.719 309.528 167.122 312.14C168.526 314.752 168.245 317.074 166.491 317.8C163.263 319.033 156.667 322.733 135.897 323.677C128.74 323.967 117.443 323.314 110.145 321.573C101.374 319.468 96.6728 316.494 101.514 313.736C102.006 312.43 104.391 311.124 107.479 310.471C112.882 309.311 125.372 307.061 131.827 305.973V306.045Z" fill="#323232"/>
</g>
<g style="mix-blend-mode:multiply" opacity="0.9">
<path d="M131.547 306.262C142.774 304.375 155.404 303.214 157.51 304.303C162.351 306.697 165.158 309.527 166.351 311.994C167.544 314.46 167.123 316.565 165.298 317.145C161.93 318.233 155.755 322.006 134.915 322.877C128.179 323.167 117.233 322.369 110.005 320.7C101.655 318.741 97.0942 315.984 102.146 313.445C102.778 312.429 105.093 311.268 108.111 310.615C113.444 309.454 124.671 307.422 131.407 306.334L131.547 306.262Z" fill="#121212"/>
</g>
<g style="mix-blend-mode:multiply" opacity="0.94">
<path d="M131.266 306.48C142.633 304.594 154.983 303.288 157.018 304.303C161.93 306.77 164.667 309.455 165.649 311.777C166.631 314.099 166 315.985 164.175 316.42C160.737 317.291 154.913 321.209 134.003 321.935C127.688 322.152 117.092 321.282 109.935 319.613C102.006 317.799 97.5851 315.259 102.918 312.938C103.62 312.14 105.935 311.196 108.952 310.616C114.215 309.455 124.249 307.641 131.266 306.48Z" fill="#323232"/>
</g>
<g style="mix-blend-mode:multiply" opacity="0.97">
<path d="M131.056 306.77C142.634 304.811 154.633 303.505 156.527 304.448C161.579 306.915 164.105 309.527 164.948 311.704C165.79 313.88 164.948 315.477 163.053 315.839C159.545 316.565 154.071 320.628 133.161 321.136C127.267 321.281 117.022 320.338 109.935 318.742C102.497 317.073 98.4274 315.332 103.76 312.574C104.672 312.139 106.848 311.341 109.865 310.688C115.128 309.6 123.899 307.931 131.126 306.77H131.056Z" fill="#464646"/>
</g>
<g style="mix-blend-mode:multiply">
<path d="M156.036 304.448C161.158 306.915 163.544 309.454 164.175 311.486C164.807 313.518 163.684 314.896 161.86 315.186C158.211 315.767 153.229 319.903 132.178 320.338C126.705 320.41 116.811 319.395 109.794 317.871C102.777 316.347 98.5673 314.243 104.461 312.284C107.058 311.413 118.986 309.019 130.775 307.133C142.563 305.246 154.141 303.722 156.036 304.593V304.448Z" fill="#323232"/>
</g>
</g>
<path d="M68.8292 66.9844C72.7661 70.5494 76.6327 70.3311 78.5309 72.2955C82.1163 76.1515 82.1163 81.3899 82.8897 83.7181C85.4909 91.7211 89.9902 112.893 92.029 117.622C92.8023 119.368 89.7793 123.37 89.7793 123.37C89.7793 123.37 79.937 139.521 63.9783 145.851L62.4316 138.721C62.4316 138.721 76.8437 121.405 78.3903 117.84C79.937 114.275 73.0473 101.689 71.571 97.3233C70.0243 92.958 68.8995 66.9844 68.8995 66.9844H68.8292Z" fill="black"/>
<path d="M27.4912 226.172C30.5142 232.065 30.5142 237.959 32.4124 244.725C34.3106 251.418 33.5372 260.513 38.1069 270.698C42.6766 280.957 44.9262 293.907 43.4499 301.037C41.9032 308.167 41.9032 310.786 38.8802 313.115C35.8572 315.516 28.616 315.734 29.8112 318.135C31.0063 320.536 31.2875 321.045 35.3651 322.064C39.4426 323.155 44.9965 322.573 44.9965 322.573C44.9965 322.573 51.1129 306.057 52.5892 310.204C53.5734 313.115 52.9407 322.282 52.9407 322.282L56.3855 321.991C56.3855 321.991 56.3855 310.859 57.9322 308.095C59.4789 305.33 57.9322 298.636 56.034 293.544C54.1359 288.451 57.9322 265.169 54.5577 251.782C52.6595 244.288 49.2147 236.431 47.7383 224.572C46.5432 215.113 46.965 209.584 46.965 209.584L27.6318 226.099L27.4912 226.172Z" fill="black"/>
<path d="M53.0117 222.243C57.0893 229.373 58.0735 229.882 60.1123 237.74C62.151 245.597 60.3935 247.998 65.1741 259.785C69.9546 271.571 77.8285 282.921 77.5473 290.778C77.2661 298.636 76.0006 298.927 78.8127 303.874C81.6248 308.894 82.8903 313.842 82.8903 316.461V319.08L86.1945 319.589C86.1945 319.589 84.4369 307.003 86.4757 306.712C88.5145 306.421 90.2721 310.131 91.8187 313.041C93.3654 315.952 96.5993 318.28 99.9035 316.679C103.208 315.078 103.7 310.64 103.981 308.021C104.262 305.402 102.434 304.092 98.9193 305.111C95.4041 306.13 93.3654 299.072 90.5533 294.052C87.7412 289.032 85.2103 270.698 84.7182 260.949C84.226 251.199 82.1873 241.014 74.3134 228.354C68.6189 219.187 71.2904 212.857 71.2904 212.857L53.082 222.025L53.0117 222.243Z" fill="black"/>
<path d="M25.2419 150.362C20.6722 150.362 17.0165 146.506 13.7826 152.618C13.0795 154 -0.559141 185.794 4.50264 192.124C9.56442 198.453 29.3194 197.871 29.3194 197.871L25.2419 150.362Z" fill="black"/>
<path d="M37.1228 22.6761C35.084 25.5136 34.0294 33.2256 34.5216 35.1173C35.0137 36.9362 35.5058 36.9361 36.0682 38.2457C36.5603 39.5553 35.084 38.2457 35.787 42.9748C36.5603 47.7039 38.5991 54.1064 40.3567 55.707C42.1142 57.3076 43.6609 56.7256 45.4185 56.2163C47.176 55.707 44.6451 60.1451 43.6609 61.2364C42.6767 62.255 37.1228 65.6017 33.1155 65.6017C29.1083 65.6017 24.9604 66.7658 22.9217 69.676C20.8829 72.5862 19.3362 75.0599 19.055 84.8091C18.7738 94.4855 14.9775 118.422 13.2199 122.424C11.4623 126.352 7.87691 134.064 4.85391 152.762C4.85391 152.762 0.916965 161.639 0.143637 166.077C-0.629691 170.515 1.8309 175.171 4.85391 178.3C7.10359 174.88 6.33026 177.79 6.11935 173.279C5.83814 168.841 6.33026 166.004 7.24419 163.676C7.5254 167.095 7.4551 163.894 7.66601 167.896C7.94722 171.824 9.21266 169.205 9.91569 165.786C10.689 162.366 10.8999 157.637 11.1811 155.527C11.4623 153.417 11.1811 151.817 13.4308 147.67C15.6805 143.45 22.7107 131.591 22.992 127.371C23.2732 123.151 30.6549 105.617 31.147 97.9778C31.147 97.9778 31.4283 110.201 28.8974 118.568C26.3665 126.934 25.101 129.19 21.6562 148.106C18.7738 163.894 21.5156 225.299 23.2732 233.957C30.3737 235.121 54.2766 235.922 62.2208 233.957C70.1649 231.993 83.1006 234.758 84.9988 233.157C86.8969 231.556 78.5309 217.806 77.4061 209.148C76.2813 200.49 75.8594 155.163 72.8364 146.142C69.8134 137.047 66.3686 126.425 67.9153 116.603C69.4619 106.781 74.3831 100.451 74.7346 96.8864C75.0861 93.3214 69.3916 72.0769 68.6886 66.9113C67.9153 61.8184 62.6426 25.5136 55.4014 21.5848C48.1603 17.656 38.5288 20.4935 36.9822 22.5306L37.1228 22.6761Z" fill="black"/>
<path d="M35.6465 26.3865C33.9593 26.0955 33.186 21.4391 36.7714 20.8571C38.3883 20.5661 42.8174 16.419 45.9107 16.128C47.8089 15.9097 56.7373 13.7271 62.01 17.2921C67.2827 20.8571 72.9772 27.9144 74.5238 36.5722C76.0705 45.2301 71.079 68.8755 71.079 92.0844C71.079 115.293 75.2269 119.659 75.2269 119.659C71.782 120.022 66.8609 117.258 66.1578 114.129C65.3845 111.001 69.6027 120.022 69.6027 120.022C69.6027 120.022 68.4778 122.423 65.8063 118.858C63.1348 115.293 41.4817 99.5782 42.255 89.3198C43.0283 79.0613 42.6065 49.2316 42.0441 41.2286C41.4817 32.9345 35.5762 26.241 35.5762 26.241L35.6465 26.3865Z" fill="black"/>
<path d="M15.6104 150.725C15.6104 144.031 25.5933 74.6954 29.8818 73.5313C34.1702 72.44 32.7642 77.9694 32.7642 77.9694C32.7642 77.9694 18.8443 142.139 18.8443 150.725C18.8443 159.31 15.6104 150.725 15.6104 150.725Z" fill="black"/>
<path d="M158.043 293.181L161.207 293.908C161.207 293.908 159.871 286.051 158.957 284.086C158.043 282.122 157.059 264.515 154.88 258.404C151.646 249.309 147.709 241.379 148.342 242.616C149.607 245.235 142.999 234.467 142.999 234.467C142.999 234.467 142.999 231.193 142.366 228.647C141.733 226.028 139.835 223.772 139.835 216.933C139.835 210.094 147.357 175.026 148.904 169.57C151.997 158.583 148.904 151.308 148.904 151.308C148.904 151.308 150.802 152.763 151.505 149.125C152.138 145.997 151.435 133.992 150.099 126.062C148.552 116.676 148.552 113.766 148.552 113.766C148.552 113.766 159.168 115.076 163.246 112.166C168.589 93.322 159.52 73.5326 156.989 64.1472C154.458 54.7618 148.834 52.4336 146.654 52.1426C144.475 51.8516 138.499 49.5234 136.953 48.5776C135.406 47.6318 134.14 44.0668 134.14 44.0668C134.14 44.0668 132.875 43.2664 131.188 43.1209C130.274 43.0482 130.274 38.1008 130.274 38.1008L133.086 36.5002L132.945 31.1163C132.945 31.1163 132.594 28.0606 133.719 24.1318C137.023 12.782 131.399 6.3068 130.133 4.9972C128.868 3.68761 126.97 4.48792 126.97 4.48792C126.97 4.48792 127.11 3.68761 125.423 1.86873C123.314 -0.313928 112.698 -0.532194 107.636 1.72322C103.278 3.68761 99.2001 6.96159 97.1613 10.3083C94.6304 14.3826 98.4268 12.1272 97.9346 13.5823C97.9346 13.5823 96.6692 18.3114 97.3019 23.186C97.9346 28.0606 101.45 43.412 103.84 44.4305C105.738 45.2308 107.566 45.0853 107.566 45.0853C107.566 45.0853 108.621 46.3222 109.042 47.7045C108.199 48.0683 107.707 48.2866 107.707 48.2866L106.371 51.9971C103.84 53.3794 100.114 54.6163 96.9504 54.7618C91.9589 55.0528 85.702 61.6008 85.702 67.7122C85.702 73.8236 78.1796 100.816 77.5469 107.291C76.9142 113.766 81.6245 124.17 85.0693 125.116C87.7408 125.844 92.8729 124.389 95.9662 118.495C93.7165 125.698 90.7638 135.593 90.2717 138.867C89.6389 143.378 90.2014 145.851 91.4668 152.035C90.2014 157.201 99.7625 199.69 103.489 212.713C107.215 225.664 107.847 234.758 109.113 239.633C110.378 244.507 113.19 246.472 115.651 250.037C118.182 253.602 122.962 288.961 123.314 294.126C123.595 299.292 122.4 306.058 122.4 306.058C122.4 306.058 122.541 305.185 125.704 303.876C125.704 304.821 116.635 310.06 110.73 309.405C104.824 308.75 102.926 311.66 102.575 315.225C102.293 318.79 122.259 322.355 124.79 321.992C127.321 321.701 129.5 321.046 132.945 321.046C136.39 321.046 138.851 321.337 142.647 321.046C146.373 320.755 146.092 316.171 145.459 313.552C144.826 310.933 144.194 303.512 144.194 303.512C144.194 303.512 145.74 309.041 145.74 310.351C145.74 311.66 151.505 314.207 157.129 313.625C162.754 312.97 165.425 310.06 163.527 306.131C161.629 302.275 157.903 293.181 157.903 293.181H158.043Z" fill="black"/>
</svg>
