<svg width="97" height="314" viewBox="0 0 97 314" fill="none" xmlns="http://www.w3.org/2000/svg">
<g filter="url(#filter0_d_1411_39388)">
<path d="M22.2152 52.5533L32.1046 41.2972C32.1046 41.2972 34.9199 40.3652 36.147 37.0672C37.4464 33.7693 37.0133 23.5886 36.7967 16.9926C36.5802 10.4684 39.3954 5.59312 42.2107 3.87244C45.0259 2.15176 47.4802 2.00837 47.4802 2.00837C47.4802 2.00837 49.0683 1.00464 51.3783 0.144302C53.6161 -0.716038 63.4333 1.50651 66.032 3.80075C68.6307 6.09499 77.2209 12.6909 76.0659 14.7701C74.9109 16.9209 74.3334 15.5587 74.3334 15.5587C74.8387 17.7096 74.6222 23.5169 73.9003 25.0225C73.1784 26.5998 72.0235 28.6789 72.0235 28.6789C72.0235 28.6789 73.6116 36.7804 63.7943 46.8894C60.9068 49.8289 56.7922 47.7498 56.7922 47.7498C54.771 48.9686 59.03 47.6781 58.5969 49.6138C58.1638 51.5496 73.1785 52.2666 74.6944 57.4286C76.2824 62.5906 83.1401 77.5032 85.7388 81.7332C85.7388 81.7332 94.0402 94.1364 95.8448 100.517C97.7217 106.97 96.7833 114.283 92.5965 116.147C88.4819 118.011 81.9851 115.215 74.6222 107.4C67.2592 99.5852 68.1976 88.1141 68.1976 88.1141C68.1976 88.1141 70.0744 100.517 73.7559 111.487C77.4374 122.528 79.7474 130.271 79.7474 135.791C79.7474 141.312 77.4374 141.312 76.0659 141.742C74.6944 142.172 76.0659 144.968 76.0659 144.968C76.0659 144.968 76.499 150.489 74.6944 162.39C72.8175 174.291 72.3844 204.188 72.3844 209.207C72.3844 214.226 73.3228 219.746 70.5076 223.474C67.7645 227.131 65.4545 238.602 64.9492 254.231C64.5161 269.861 64.7327 280.758 67.9811 286.279C71.2294 291.8 70.9407 291.584 71.446 295.241C69.136 298.467 52.4611 298.826 48.6352 301.12C43.51 304.203 44.1597 305.278 44.1597 305.278C44.1597 305.278 39.9007 291.011 39.6842 284.2C38.3126 241.255 45.0981 236.379 45.5312 224.406C45.9643 212.433 45.5312 193.434 45.5312 193.434C45.5312 193.434 39.7563 220.391 36.8689 228.923C33.9093 237.67 33.404 240.394 32.0324 244.051C30.6609 247.707 28.5675 278.679 30.4444 285.132C32.3212 291.584 34.4868 292.588 34.4868 292.588C34.4868 292.588 8.71637 303.271 6.47861 300.761C2.36401 296.03 7.85014 284.343 7.41703 276.457C6.76735 265.846 10.1601 228.278 14.78 217.667C19.3999 207.128 23.5145 180.457 21.2046 171.782C18.8946 163.035 19.3277 149.27 23.5145 141.957C23.5145 141.957 16.5846 141.957 17.5231 135.074C18.4615 128.192 20.2661 121.739 18.8946 113.924C17.5231 106.109 8.28326 73.0581 10.5932 66.1754C12.9032 59.2927 22.143 52.41 22.143 52.41L22.2152 52.5533Z" fill="black"/>
</g>
<defs>
<filter id="filter0_d_1411_39388" x="0.939453" y="-0.0449219" width="99.8281" height="313.322" filterUnits="userSpaceOnUse" color-interpolation-filters="sRGB">
<feFlood flood-opacity="0" result="BackgroundImageFix"/>
<feColorMatrix in="SourceAlpha" type="matrix" values="0 0 0 0 0 0 0 0 0 0 0 0 0 0 0 0 0 0 127 0" result="hardAlpha"/>
<feOffset dy="4"/>
<feGaussianBlur stdDeviation="2"/>
<feComposite in2="hardAlpha" operator="out"/>
<feColorMatrix type="matrix" values="0 0 0 0 0 0 0 0 0 0 0 0 0 0 0 0 0 0 0.25 0"/>
<feBlend mode="normal" in2="BackgroundImageFix" result="effect1_dropShadow_1411_39388"/>
<feBlend mode="normal" in="SourceGraphic" in2="effect1_dropShadow_1411_39388" result="shape"/>
</filter>
</defs>
</svg>
